<svg width="44" height="44" viewBox="0 0 44 44" fill="none" xmlns="http://www.w3.org/2000/svg">
<path fill-rule="evenodd" clip-rule="evenodd" d="M27.9492 13.1749C28.5043 13.6595 28.5614 14.5022 28.0769 15.0573L21.0889 23.0617C20.6044 23.6167 19.7616 23.6738 19.2066 23.1893C18.6517 22.7047 18.5944 21.862 19.0789 21.307L26.0669 13.3026C26.5515 12.7475 27.3942 12.6904 27.9492 13.1749ZM6.62832 22.7801C7.18335 22.2956 8.0261 22.3527 8.51065 22.9079L13.096 28.1602L15.585 25.3092C16.0696 24.754 16.9123 24.6969 17.4674 25.1815C18.0224 25.666 18.0795 26.5088 17.595 27.0639L14.101 31.0661C13.8477 31.3562 13.4813 31.5227 13.096 31.5227C12.7108 31.5227 12.3444 31.3562 12.0911 31.0661L6.50072 24.6626C6.01615 24.1074 6.0733 23.2647 6.62832 22.7801ZM36.886 13.3251C37.4196 13.8333 37.4402 14.6777 36.9321 15.2112L29.3087 23.2156C28.8005 23.7492 27.956 23.7697 27.4225 23.2617C26.8891 22.7535 26.8684 21.9091 27.3766 21.3755L35 13.3711C35.5082 12.8376 36.3525 12.817 36.886 13.3251ZM25.4509 25.3318C25.9844 25.8398 26.005 26.6843 25.4968 27.2178L21.6852 31.22C21.4157 31.503 21.0357 31.6534 20.6457 31.6319C20.2556 31.6104 19.8945 31.419 19.6577 31.1081L18.8959 30.1075C18.4496 29.5214 18.5629 28.6844 19.149 28.2381C19.6526 27.8546 20.3413 27.8841 20.8084 28.2717L23.5648 25.3777C24.0729 24.8442 24.9173 24.8236 25.4509 25.3318Z" fill="#005840"/>
</svg>
