<svg width="53" height="53" viewBox="0 0 53 53" fill="none" xmlns="http://www.w3.org/2000/svg">
<g clip-path="url(#clip0_323_18780)">
<path fill-rule="evenodd" clip-rule="evenodd" d="M15.6385 32.5843C15.7335 32.5237 15.8861 32.4329 16.0456 32.3692C17.2603 31.8825 18.4429 32.212 19.4433 32.7752C19.7263 32.9345 20.0846 32.8332 20.2432 32.5489C20.4019 32.2649 20.3009 31.9046 20.0179 31.7453C18.7221 31.0156 17.1837 30.6417 15.6103 31.2726C14.7605 31.613 14.4615 32.0475 14.4053 32.3919C14.3431 32.7745 14.5428 33.2268 15.0548 33.6484C15.5169 34.0293 16.2623 34.45 16.9821 34.942C17.6025 35.3658 18.213 35.8388 18.517 36.419C19.5259 38.3448 20.0753 40.2371 23.4157 42.6029C25.0018 43.7259 25.7828 45.7338 26.1418 46.9537C26.2336 47.2659 26.5608 47.4448 26.872 47.3524C27.1831 47.2597 27.3608 46.9312 27.269 46.6189C26.8561 45.2156 25.9179 42.93 24.0932 41.6378C20.9859 39.4374 20.4956 37.6601 19.5572 35.8693C18.941 34.6938 17.3632 33.8012 16.2848 33.0851C16.061 32.9367 15.8636 32.7971 15.7143 32.6617C15.6896 32.639 15.6626 32.6108 15.6385 32.5843ZM36.2473 44.19C35.8161 42.6754 35.1579 39.8855 35.7047 38.2601C36.779 35.069 35.7058 31.6309 35.7058 31.6309C35.6083 31.3202 35.2779 31.1476 34.9685 31.2451C34.6592 31.343 34.4873 31.6749 34.5848 31.9857C34.5848 31.9857 35.5468 35.0434 34.5915 37.8821C33.98 39.6982 34.6356 42.8221 35.117 44.5146C35.2063 44.8279 35.5318 45.0097 35.8437 44.92C36.1556 44.8303 36.3365 44.5033 36.2473 44.19ZM26.3738 34.2806L22.507 19.7836C22.1921 18.6032 20.9825 17.9016 19.8075 18.2179C18.632 18.5343 17.9336 19.7494 18.2485 20.9298L22.1153 35.4268C22.1993 35.7416 22.5217 35.9286 22.8351 35.8443C23.1484 35.7599 23.3346 35.436 23.2506 35.1212L19.3838 20.6242C19.2369 20.0734 19.5629 19.506 20.1117 19.3583C20.66 19.2107 21.2248 19.5383 21.3717 20.0892L25.2385 34.5861C25.3225 34.9009 25.6449 35.0879 25.9583 35.0036C26.2716 34.9193 26.4578 34.5953 26.3738 34.2806ZM29.497 33.4399L27.1732 24.7278C26.8584 23.5474 25.6487 22.8458 24.4737 23.1621C24.1603 23.2464 23.9742 23.5703 24.0581 23.8851C24.1421 24.1999 24.4645 24.3869 24.7779 24.3026C25.3262 24.155 25.891 24.4825 26.0379 25.0334L28.3617 33.7455C28.4457 34.0602 28.7681 34.2473 29.0815 34.1629C29.3948 34.0786 29.581 33.7547 29.497 33.4399ZM32.6202 32.5992L30.8839 26.0897C30.5691 24.9093 29.3594 24.2078 28.184 24.5241C27.8711 24.6084 27.6845 24.9324 27.7685 25.2472C27.8524 25.5619 28.1753 25.7489 28.4882 25.6646C29.0369 25.5169 29.6017 25.8445 29.7486 26.3953L31.4849 32.9048C31.5689 33.2196 31.8913 33.4066 32.2047 33.3222C32.518 33.2379 32.7042 32.914 32.6202 32.5992Z" fill="#005840"/>
<path fill-rule="evenodd" clip-rule="evenodd" d="M35.7166 31.7562L34.5272 27.2134C34.2124 26.033 33.0027 25.3314 31.8273 25.6478C31.514 25.7322 31.3278 26.0561 31.4117 26.3709C31.4957 26.6856 31.8182 26.8726 32.1315 26.7883C32.6798 26.6407 33.2445 26.9679 33.3918 27.5186L34.5799 32.0565C34.6623 32.3717 34.984 32.5601 35.2977 32.4773C35.6115 32.3945 35.7991 32.0714 35.7166 31.7562ZM17.7726 12.8847L18.4363 15.3728C18.5202 15.6876 18.8427 15.8746 19.156 15.7902C19.4694 15.7059 19.6555 15.382 19.5716 15.0672L18.9079 12.5791C18.824 12.2643 18.5015 12.0773 18.1882 12.1616C17.8748 12.246 17.6887 12.5699 17.7726 12.8847ZM13.3306 22.2828L15.8074 21.6161C16.1208 21.5317 16.307 21.2078 16.223 20.893C16.139 20.5783 15.8166 20.3913 15.5032 20.4756L13.0264 21.1423C12.7131 21.2266 12.5269 21.5506 12.6108 21.8653C12.6948 22.1801 13.0173 22.3671 13.3306 22.2828ZM24.9553 19.1537L27.4321 18.487C27.7455 18.4027 27.9317 18.0788 27.8477 17.764C27.7637 17.4492 27.4413 17.2622 27.1279 17.3466L24.6511 18.0133C24.3378 18.0976 24.1516 18.4215 24.2356 18.7363C24.3195 19.0511 24.642 19.2381 24.9553 19.1537ZM13.6141 16.6594L15.8348 17.9473C16.1156 18.1105 16.4751 18.0138 16.6374 17.7313C16.7995 17.4493 16.7032 17.0882 16.4224 16.925L14.2017 15.637C13.9206 15.4743 13.5611 15.5711 13.399 15.8531C13.2367 16.1355 13.333 16.4967 13.6141 16.6594ZM23.3704 13.1691L22.0883 15.3999C21.9259 15.6823 22.0222 16.0435 22.3033 16.2062C22.5841 16.3694 22.9436 16.2726 23.106 15.9901L24.3881 13.7593C24.5501 13.4774 24.4538 13.1162 24.173 12.953C23.8919 12.7903 23.5324 12.8871 23.3704 13.1691Z" fill="#005840"/>
</g>
<defs>
<clipPath id="clip0_323_18780">
<rect width="42.69" height="42.69" fill="white" transform="translate(0 11.5894) rotate(-15)"/>
</clipPath>
</defs>
</svg>
