<svg width="148" height="151" viewBox="0 0 148 151" fill="none" xmlns="http://www.w3.org/2000/svg">
<g clip-path="url(#clip0_323_18795)">
<path d="M109.256 76.3921C109.256 76.3921 109.222 78.6987 108.636 81.3495C107.638 85.9282 102.646 88.3724 98.3773 86.3069C96.9314 85.5839 95.3478 84.5511 93.833 83.0364L90.7347 89.061C90.7347 89.061 94.8658 93.8118 101.613 94.8102C108.017 95.7741 113.663 91.9872 115.384 85.756C116.072 83.2774 116.451 80.179 116.141 76.3921H109.256Z" fill="#648D12"/>
<path d="M110.43 81.1073C110.43 81.1073 103.269 79.9368 104.371 71.8123C104.371 71.8123 103.855 70.1942 102.478 69.0582C101.273 68.0598 101.307 66.1319 102.65 65.3057C102.673 65.2827 102.696 65.2598 102.719 65.2369C103.579 64.7205 104.681 64.8237 105.438 65.5123C106.609 66.5106 108.192 68.1286 108.95 70.8139C108.95 70.8139 108.227 65.7532 108.537 60.9336C108.605 59.7631 109.397 58.7303 110.533 58.386C110.556 58.3631 110.579 58.3516 110.602 58.3516C112.392 57.8352 114.217 59.1778 114.251 61.0713C114.32 62.9303 114.389 65.891 114.32 68.6795C114.32 68.6795 115.319 64.1352 116.523 61.209C117.143 59.6942 118.864 58.9024 120.414 59.5221C120.437 59.5221 120.46 59.5221 120.482 59.5221C121.928 60.1418 122.651 61.7598 122.204 63.2746C121.515 65.409 120.345 69.0582 119.381 71.468C119.381 71.468 120.827 70.3319 122.514 69.1614C123.581 68.4041 125.096 68.645 125.819 69.7123C125.819 69.7352 125.83 69.7582 125.853 69.7811C126.507 70.7795 126.266 72.1221 125.337 72.9139C124.786 73.3614 124.063 73.9811 123.374 74.5664C122.41 75.3926 121.619 76.4254 121.068 77.5959C120.138 79.4893 117.522 82.5532 110.43 81.1073Z" fill="#648D12"/>
<path d="M101.615 67.1991C101.959 66.2008 102.647 65.8565 103.198 65.7188C103.783 65.5811 104.403 65.7532 104.92 66.0975C108.293 68.3008 109.257 74.1188 109.257 74.1188C112.356 74.2565 113.836 76.6319 113.836 76.6319C112.906 73.7057 110.083 73.2237 110.083 73.2237L109.636 70.9172C109.636 70.9172 109.188 66.3041 109.326 62.7582C109.395 61.2434 109.739 60.3483 110.118 59.8319C110.565 59.2467 111.288 59.0057 112.011 59.1434C114.215 59.5909 114.283 62.4139 114.318 62.6205C114.283 62.0696 114.283 61.5188 114.249 61.0713C114.215 59.1778 112.39 57.8352 110.6 58.3516C110.577 58.3516 110.554 58.3631 110.531 58.386C109.395 58.7303 108.603 59.7631 108.534 60.9336C108.224 65.7532 108.947 70.8139 108.947 70.8139C108.19 68.1286 106.606 66.5106 105.436 65.5123C104.679 64.8237 103.577 64.7205 102.716 65.2369C102.693 65.2598 102.67 65.2827 102.647 65.3057C101.959 65.7188 101.615 66.4418 101.615 67.1991Z" fill="#648D12"/>
<path d="M116.248 61.8629C116.971 60.7957 118.141 60.4514 118.83 60.3481C119.243 60.2793 119.691 60.3481 120.069 60.5547C120.758 60.899 121.033 61.4842 121.171 61.9662C121.24 62.3104 121.24 62.6547 121.171 63.0334C120.586 65.3744 118.623 72.5695 118.623 72.5695L122.273 70.194C122.617 69.9531 122.996 69.8154 123.409 69.7465C123.787 69.7121 124.063 69.7809 124.269 69.8498C124.51 69.9186 124.717 70.0563 124.889 70.2285C125.646 71.0891 125.44 72.294 125.199 73.017C125.245 72.9711 125.291 72.9367 125.337 72.9137C126.266 72.1219 126.507 70.7793 125.853 69.7809C125.83 69.758 125.819 69.735 125.819 69.7121C125.096 68.6449 123.581 68.4039 122.514 69.1613C120.827 70.2973 119.381 71.4678 119.381 71.4678C120.345 69.058 121.515 65.4088 122.204 63.2744C122.651 61.7596 121.928 60.1416 120.482 59.5219C120.46 59.5219 120.437 59.5219 120.414 59.5219C118.864 58.9022 117.143 59.694 116.523 61.2088C116.432 61.4154 116.34 61.6334 116.248 61.8629Z" fill="#648D12"/>
<path d="M92.1165 91.9533C92.1165 91.9533 106.885 64.3435 80.446 47.8877C66.3656 39.1435 47.9476 41.2435 36.8279 53.5336C36.5296 53.855 36.2427 54.1763 35.9673 54.4976C27.7738 64.2058 26.0181 77.873 31.6984 89.2336C31.8361 89.509 31.9853 89.7845 32.146 90.0599C32.146 90.0599 29.9427 90.232 28.4968 92.1599C26.4656 94.914 27.8427 98.873 31.0788 100.043C33.1099 100.801 36.1738 100.939 40.6148 99.2172C40.6148 99.2172 49.4624 105.689 58.482 101.971C61.4083 100.766 64.5066 99.9402 67.7083 99.7681C70.8066 99.5615 74.6968 99.5959 78.6902 100.284C81.1001 100.698 83.4066 101.489 85.6443 102.522C87.2624 103.245 90.0165 104.106 92.9771 103.314C95.2492 102.694 96.9017 100.698 96.9361 98.3566C96.9706 96.291 96.0755 93.7435 92.1165 91.9533Z" fill="#648D12"/>
<path d="M88.2263 57.2165C99.9656 73.328 90.6361 92.9509 90.6361 92.9509C91.7378 93.364 92.5984 93.8804 93.2525 94.3968C94.5607 95.4985 95.3525 97.1509 95.2492 98.8722C95.0083 102.556 90.8083 103.416 89.6722 103.589C90.705 103.692 91.8066 103.623 92.9771 103.313C95.2492 102.694 96.9017 100.697 96.9361 98.3558C96.9706 96.2903 96.0755 93.7427 92.1165 91.9526C92.1165 91.9526 101.859 73.7755 91.3935 58.146C91.2558 58.146 91.1066 58.1345 90.946 58.1116C89.982 58.0083 89.0525 57.6985 88.2263 57.2165Z" fill="#648D12"/>
<path d="M108.947 70.8144C108.947 70.8144 109.636 72.3636 109.773 73.5341C109.773 73.5341 112.768 74.0505 113.836 76.6325C113.836 76.6325 113.491 73.7062 110.358 73.0177C110.358 73.0177 109.636 70.4702 108.775 69.2653L108.947 70.8144Z" fill="#29234E"/>
<path fill-rule="evenodd" clip-rule="evenodd" d="M36.4122 53.185C36.1368 53.5063 35.8499 53.8276 35.5516 54.1489C33.5893 56.4899 31.9712 59.0719 30.7319 61.826C30.2499 62.5833 28.9762 64.3391 27.2893 64.8555C26.3253 65.1653 25.568 65.8194 25.1893 66.6456L25.1548 66.7145C24.8794 67.4374 24.9483 68.2637 25.3958 68.9178C25.8434 69.5719 26.6007 69.985 27.3925 69.985C27.4155 69.985 27.4499 69.985 27.4958 69.985C27.7712 69.962 28.0466 69.9161 28.3221 69.8473C27.9434 71.9129 27.8057 74.0473 27.8745 76.1128C19.3368 77.6276 13.1401 85.3047 13.4499 94.1522C13.4729 94.7948 13.5073 95.4374 13.5532 96.0801C10.7991 96.9063 8.52697 98.8342 7.32205 101.451C7.1614 101.795 7.02369 102.151 6.90894 102.518C6.35812 104.101 6.25484 105.754 6.63353 107.303C7.39091 110.505 9.49092 111.055 10.4549 111.124C10.5926 111.859 10.9139 112.501 11.4188 113.052C12.2106 113.844 13.3466 114.326 14.5171 114.326C14.6089 114.326 14.7007 114.326 14.7925 114.326C16.1352 114.223 16.9614 113.844 17.3745 113.603C18.3729 114.085 19.3024 114.326 20.2319 114.326C20.3466 114.326 20.4614 114.314 20.5761 114.292C22.1598 114.188 23.5712 113.293 24.363 111.916C25.1548 110.505 25.2237 108.818 24.5007 107.406C24.4548 107.292 24.3975 107.188 24.3286 107.096C26.0499 106.064 26.3598 103.998 26.2909 103C25.8089 98.5932 22.5729 96.9063 21.0925 96.3555C21.1614 88.2997 25.2925 84.9948 29.0106 83.6522C29.5614 85.6489 30.2844 87.6112 31.2139 89.4702C31.2598 89.5391 31.2942 89.6079 31.3171 89.6768C30.4909 89.8833 29.1139 90.4686 28.0811 91.8456C27.0483 93.2227 26.7384 94.9784 27.2204 96.6653C27.7712 98.4555 29.1139 99.9014 30.8696 100.555C31.9024 100.9 33.0729 101.106 34.3122 101.106C36.1712 101.106 38.2712 100.659 40.5434 99.8325C40.7499 99.9702 41.0598 100.142 41.4729 100.418C40.1302 102.208 38.9942 104.17 38.0647 106.167C37.0319 108.37 37.0663 110.918 38.168 113.121C41.163 119.18 44.3303 124.516 44.3647 124.585L44.6057 124.964L45.0188 124.792L51.9384 122.072L52.4893 121.831L52.2139 121.314L46.2581 110.126C47.1188 108.026 48.3925 105.788 50.0794 103.482C50.9286 103.596 51.7548 103.654 52.5581 103.654C54.6926 103.654 56.7581 103.241 58.686 102.449C61.7499 101.21 64.8139 100.452 67.7401 100.28C68.7729 100.211 69.8057 100.177 70.9073 100.177C72.9729 102.621 75.727 106.201 77.3106 110.126L71.3548 121.314L71.0794 121.831L71.6303 122.072L78.5499 124.792L78.963 124.964L79.204 124.585C79.2384 124.516 82.4401 119.18 85.4007 113.121C86.5024 110.918 86.5368 108.37 85.504 106.167C84.8843 104.79 84.127 103.413 83.2663 102.105C83.9778 102.357 84.6893 102.655 85.4007 103C86.5712 103.516 88.3958 104.17 90.4958 104.17C91.3909 104.17 92.286 104.033 93.1122 103.826C95.6942 103.103 97.4499 100.934 97.4844 98.3522C97.5188 96.7686 97.0024 94.703 94.8335 92.9473C96.6237 94.0145 98.8614 94.944 101.547 95.3571C102.212 95.4489 102.878 95.4948 103.543 95.4948C109.361 95.4948 114.319 91.6391 115.902 85.8899C116.281 84.5817 116.522 83.1358 116.66 81.6555C119.483 80.9325 120.86 79.1768 121.548 77.8342C122.065 76.7325 122.822 75.7686 123.717 74.9768C124.302 74.4604 124.956 73.9096 125.679 73.3243C126.85 72.3604 127.091 70.7079 126.299 69.4686L126.265 69.4342C125.748 68.6424 124.853 68.1948 123.889 68.1948C123.27 68.1948 122.684 68.3669 122.202 68.7112C121.617 69.1243 121.032 69.5374 120.55 69.8817C121.376 67.644 122.202 64.9932 122.719 63.444C123.27 61.6538 122.375 59.726 120.688 59.0374L120.584 59.003C120.194 58.8424 119.781 58.762 119.345 58.762C117.899 58.762 116.591 59.6571 116.04 60.9997C115.593 62.0325 115.214 63.2374 114.87 64.4079C114.835 63.1342 114.835 61.9637 114.801 61.0342C114.732 59.2096 113.217 57.6948 111.393 57.6948C111.071 57.6948 110.75 57.7407 110.429 57.8325L110.36 57.8669C109.052 58.2801 108.088 59.485 108.019 60.8965C107.847 63.3063 107.95 65.7506 108.088 67.644C107.33 66.5424 106.47 65.7161 105.781 65.0965C105.265 64.6145 104.576 64.3735 103.888 64.3735C103.371 64.3735 102.889 64.5112 102.442 64.7866L102.338 64.8555C101.581 65.3374 101.134 66.1292 101.065 67.0243C101.03 67.9538 101.409 68.8833 102.132 69.4686C103.165 70.3292 103.681 71.5342 103.819 71.8784C103.13 77.3866 106.091 79.8309 108.191 80.8637C108.168 80.9784 108.145 81.1047 108.122 81.2424C107.434 84.3407 104.748 86.5096 101.581 86.5096C100.548 86.5096 99.5499 86.2686 98.6204 85.821C97.5532 85.3047 96.5548 84.6506 95.5909 83.8932C97.2434 77.2145 97.9319 67.5751 92.3204 58.6243C92.6647 58.5784 92.986 58.4981 93.2843 58.3833C94.1794 58.0391 94.8335 57.2817 95.0401 56.3522C95.2466 55.4227 95.0057 54.5276 94.3516 53.8735C93.8352 53.3571 93.1811 52.9784 92.3893 52.8407C92.1827 52.7948 91.9532 52.7719 91.7007 52.7719C91.4712 52.7948 91.2417 52.8063 91.0122 52.8063C90.8286 52.8292 90.6335 52.8407 90.427 52.8407C90.3122 52.8407 90.1975 52.8407 90.0827 52.8407C89.463 52.7719 88.8204 52.5997 88.1548 52.3243C87.3975 52.0145 86.6401 51.6014 85.8483 51.085C85.6417 50.9473 85.4237 50.7981 85.1942 50.6374V50.603L85.1598 50.5686H85.1253L85.0221 50.4653L84.9532 50.4309L84.6434 50.7751L84.6089 50.8096L84.9188 50.3965C83.6106 49.3637 82.1991 48.3653 80.7188 47.4358C75.0384 43.8899 68.4975 42.0309 61.8188 42.0309C52.1106 42.0309 42.8499 46.0932 36.4122 53.185ZM80.4434 47.8833C81.9581 48.8243 83.3466 49.8112 84.6089 50.844C84.6778 50.8899 84.7466 50.9473 84.8155 51.0161C84.8384 51.0161 84.8499 51.0161 84.8499 51.0161C84.8499 51.0161 84.8499 51.0276 84.8499 51.0506C85.0794 51.2112 85.3089 51.3719 85.5384 51.5325C86.2958 52.0489 87.1221 52.4965 87.9483 52.8063C88.6368 53.0817 89.3253 53.2883 90.0483 53.3571C90.163 53.3801 90.2893 53.3915 90.427 53.3915C90.8401 53.3915 91.2876 53.3227 91.7007 53.3227C91.9073 53.3227 92.1024 53.3342 92.286 53.3571C92.9057 53.4948 93.5253 53.7702 93.9729 54.2522C95.0745 55.3883 94.5925 57.3161 93.0778 57.8669C92.6647 58.0391 92.1483 58.1424 91.5286 58.1424C91.4827 58.1424 91.4368 58.1424 91.3909 58.1424C97.5188 67.2997 96.6925 77.3522 95.0057 84.0997C96.1417 85.0637 97.3122 85.7522 98.3794 86.303C99.4466 86.8194 100.514 87.026 101.581 87.026C104.852 87.026 107.881 84.8227 108.638 81.3456C108.707 81.0702 108.765 80.8063 108.811 80.5538C106.745 79.6932 103.612 77.3866 104.37 71.8096C104.37 71.8096 103.853 70.1915 102.476 69.0555C101.271 68.0571 101.306 66.1292 102.648 65.303C102.671 65.2801 102.694 65.2571 102.717 65.2342C103.096 65.0276 103.475 64.9243 103.888 64.9243C104.438 64.9243 104.989 65.0965 105.437 65.5096C106.607 66.5079 108.191 68.126 108.948 70.8112C108.948 70.8112 108.225 65.7506 108.535 60.9309C108.604 59.7604 109.396 58.7276 110.532 58.3833C110.555 58.3604 110.578 58.3489 110.601 58.3489C110.853 58.2801 111.117 58.2456 111.393 58.2456C112.907 58.2456 114.215 59.4506 114.25 61.0686C114.319 62.9276 114.388 65.8883 114.319 68.6768C114.319 68.6768 115.317 64.1325 116.522 61.2063C117.004 60.0358 118.14 59.3129 119.345 59.3129C119.689 59.3129 120.045 59.3817 120.412 59.5194C120.435 59.5194 120.458 59.5194 120.481 59.5194C121.927 60.1391 122.65 61.7571 122.202 63.2719C121.514 65.4063 120.343 69.0555 119.379 71.4653C119.379 71.4653 120.825 70.3292 122.512 69.1588C122.925 68.8489 123.407 68.7112 123.889 68.7112C124.647 68.7112 125.37 69.0555 125.817 69.7096C125.817 69.7325 125.829 69.7555 125.852 69.7784C126.506 70.7768 126.265 72.1194 125.335 72.9112C124.784 73.3588 124.061 73.9784 123.373 74.5637C122.409 75.3899 121.617 76.4227 121.066 77.5932C120.447 78.8325 119.07 80.6227 116.178 81.2424C116.04 82.9292 115.765 84.4096 115.386 85.7522C113.837 91.3292 109.12 94.9784 103.543 94.9784C102.901 94.9784 102.258 94.9211 101.615 94.8063C97.5876 94.2211 94.5237 92.2932 92.6647 90.8473C92.3204 91.5702 92.1139 91.9489 92.1139 91.9489C96.0729 93.7391 96.968 96.2866 96.9335 98.3522C96.8991 100.693 95.2466 102.69 92.9745 103.31C92.1139 103.516 91.2876 103.619 90.4958 103.619C88.5335 103.619 86.8122 103.034 85.6417 102.518C84.4253 101.944 83.186 101.462 81.9237 101.072C83.3352 103.034 84.3335 104.893 85.0221 106.374C85.986 108.439 85.9516 110.849 84.9532 112.88C81.9237 118.974 78.7565 124.31 78.7565 124.31L71.8368 121.555L77.9302 110.16C76.2434 105.995 73.3171 102.139 71.1483 99.6604C71.0794 99.6604 71.0221 99.6604 70.9762 99.6604C69.8057 99.6604 68.704 99.6948 67.7057 99.7637C64.504 99.9358 61.4057 100.762 58.4794 101.967C56.4483 102.793 54.4516 103.103 52.5581 103.103C51.6286 103.103 50.6991 103.034 49.8384 102.896C48.2548 105.031 46.7057 107.51 45.6385 110.16L51.7319 121.555L44.8122 124.31C44.8122 124.31 41.645 118.974 38.6499 112.88C37.6171 110.849 37.5827 108.439 38.5466 106.374C39.3384 104.687 40.5089 102.518 42.2647 100.246C41.2319 99.6604 40.6122 99.2128 40.6122 99.2128C38.0991 100.211 35.9991 100.59 34.3122 100.59C33.004 100.59 31.9368 100.349 31.0761 100.039C27.8401 98.8686 26.463 94.9096 28.4942 92.1555C29.9401 90.2276 32.1434 90.0555 32.1434 90.0555C31.9827 89.7801 31.8335 89.5047 31.6958 89.2292C30.6975 87.1981 29.9057 85.0981 29.3548 82.9292C25.4991 84.1686 20.5073 87.5424 20.5761 96.7342C21.7811 97.1129 25.2581 98.5932 25.7401 103.034C25.7401 103.034 25.9811 105.926 23.5368 106.89C23.5368 106.89 23.7778 107.165 24.0188 107.647C25.3614 110.298 23.5368 113.569 20.5417 113.775C20.427 113.775 20.3237 113.775 20.2319 113.775C19.4057 113.775 18.4417 113.569 17.3401 112.983C17.3401 112.983 16.5483 113.672 14.7581 113.775C14.6893 113.775 14.6089 113.775 14.5171 113.775C13.5188 113.775 12.5204 113.396 11.8319 112.674C11.3844 112.192 11.0057 111.537 10.9024 110.608C10.9024 110.608 10.8335 110.608 10.7303 110.608C10.0762 110.608 7.9073 110.367 7.14993 107.165C6.77123 105.685 6.90894 104.136 7.42533 102.69C7.51713 102.369 7.64337 102.036 7.80403 101.692C9.04337 99.0407 11.4188 97.1817 14.1384 96.4932C14.0696 95.8047 14.0007 95.0129 13.9663 94.1178C13.6909 85.4079 19.9221 77.8342 28.4253 76.5948C28.3221 74.0129 28.5286 71.4309 29.0106 68.8833C28.4598 69.262 27.9434 69.4342 27.4614 69.4342C27.4384 69.4571 27.4155 69.4686 27.3925 69.4686C26.0844 69.4686 25.1548 68.126 25.6712 66.921C25.6712 66.8981 25.6712 66.8751 25.6712 66.8522C25.9811 66.1292 26.6696 65.6129 27.427 65.3719C29.3549 64.7866 30.6975 62.8932 31.2139 62.1014C32.4188 59.3817 34.0024 56.8342 35.9647 54.4932C36.2401 54.1719 36.527 53.8506 36.8253 53.5292C43.4007 46.2653 52.5581 42.5473 61.8188 42.5473C68.2221 42.5473 74.6942 44.303 80.4434 47.8833ZM92.8368 91.7079C92.8598 91.7079 92.8712 91.6965 92.8712 91.6735C92.9401 91.7194 93.0089 91.7768 93.0778 91.8456C93.0089 91.7997 92.9286 91.7538 92.8368 91.7079Z" fill="#29234E"/>
<path d="M108.811 80.5593C108.811 80.5593 111.118 81.4544 114.009 81.4888C114.009 81.4888 111.393 82.2462 108.57 81.0413L108.811 80.5593Z" fill="#29234E"/>
</g>
<g clip-path="url(#clip1_323_18795)">
<path d="M71.7919 94.7228C71.7919 94.7228 78.4362 100.92 81.328 108.115L75.2346 119.51L82.1542 122.264C82.1542 122.264 85.3214 116.928 88.3165 110.834C89.3493 108.803 89.3837 106.393 88.4198 104.328C87.2493 101.78 85.1493 98.1654 81.6378 94.7228H71.7919Z" fill="#648D12"/>
<path d="M86.9389 113.592C84.4258 118.446 82.1536 122.268 82.1536 122.268L75.2339 119.514L79.0897 112.284C83.0487 116.518 86.9389 113.592 86.9389 113.592Z" fill="#5C7E1C"/>
<path d="M86.1132 100.197C82.0854 99.99 79.6411 102.228 78.987 103.57C75.8542 98.5097 71.7919 94.7228 71.7919 94.7228H81.6378C83.428 96.4785 85.0116 98.5097 86.1132 100.197Z" fill="#29234E"/>
<path d="M58.5733 94.7228C58.5733 94.7228 51.929 100.92 49.0372 108.115L55.1307 119.51L48.211 122.264C48.211 122.264 45.0438 116.928 42.0143 110.834C41.0159 108.803 40.9815 106.393 41.9454 104.328C43.1159 101.78 45.2159 98.1654 48.7274 94.7228H58.5733Z" fill="#648D12"/>
<path d="M43.4222 113.592C45.9354 118.446 48.2075 122.268 48.2075 122.268L55.1272 119.514L51.2714 112.284C47.3124 116.518 43.4222 113.592 43.4222 113.592Z" fill="#5C7E1C"/>
<path d="M58.5685 94.7228C58.5685 94.7228 55.8833 97.2359 53.198 100.885C50.7882 98.613 46.0718 99.8867 43.9374 100.644C45.1079 98.7851 46.6915 96.7195 48.7226 94.7228H58.5685Z" fill="#29234E"/>
<path d="M100.041 82.3985C96.7358 80.6427 93.2119 79.7131 93.2119 79.7131V73.9639C94.6578 73.8262 96.0349 73.8262 97.3431 73.9295C99.18 73.6201 101.59 73.7912 103.483 74.31C100.454 75.7903 99.903 80.9526 100.041 82.3985Z" fill="#29234E"/>
<path d="M17.7061 74.3397C17.7061 74.3397 17.7405 76.6462 18.3257 79.297C19.3241 83.8757 24.3159 86.32 28.5848 84.2544C30.0307 83.5315 31.6143 82.4987 33.129 80.9839L36.2274 87.0085C36.2274 87.0085 32.0962 91.7593 25.3487 92.7577C18.9454 93.7216 13.2995 89.9347 11.5782 83.7036C10.8897 81.2249 10.511 78.1265 10.8208 74.3397H17.7061Z" fill="#648D12"/>
<path d="M16.5369 79.0549C16.5369 79.0549 23.6976 77.8844 22.5959 69.7598C22.5959 69.7598 23.1123 68.1418 24.4894 67.0057C25.6943 66.0074 25.6599 64.0795 24.3172 63.2533C24.2943 63.2303 24.2713 63.2074 24.2484 63.1844C23.3877 62.668 22.2861 62.7713 21.5287 63.4598C20.3582 64.4582 18.7746 66.0762 18.0172 68.7615C18.0172 68.7615 18.7402 63.7008 18.4304 58.8811C18.3615 57.7107 17.5697 56.6779 16.4336 56.3336C16.4107 56.3106 16.3877 56.2992 16.3648 56.2992C14.5746 55.7828 12.75 57.1254 12.7156 59.0188C12.6467 60.8779 12.5779 63.8385 12.6467 66.627C12.6467 66.627 11.6484 62.0828 10.4435 59.1566C9.8238 57.6418 8.10248 56.85 6.5533 57.4697C6.53035 57.4697 6.5074 57.4697 6.48445 57.4697C5.03855 58.0893 4.3156 59.7074 4.76314 61.2221C5.45167 63.3565 6.62216 67.0057 7.58609 69.4156C7.58609 69.4156 6.14019 68.2795 4.45331 67.109C3.38609 66.3516 1.87134 66.5926 1.14839 67.6598C1.14839 67.6828 1.13691 67.7057 1.11396 67.7287C0.459861 68.727 0.700844 70.0697 1.63035 70.8615C2.18117 71.309 2.90413 71.9287 3.59265 72.5139C4.55659 73.3402 5.34839 74.3729 5.89921 75.5434C6.82872 77.4369 9.44511 80.5008 16.5369 79.0549Z" fill="#648D12"/>
<path d="M25.3507 65.1467C25.0064 64.1484 24.3179 63.8041 23.7671 63.6664C23.1818 63.5287 22.5622 63.7008 22.0458 64.0451C18.672 66.2484 17.7081 72.0664 17.7081 72.0664C14.6097 72.2041 13.1294 74.5795 13.1294 74.5795C14.0589 71.6533 16.8818 71.1713 16.8818 71.1713L17.3294 68.8648C17.3294 68.8648 17.7769 64.2516 17.6392 60.7057C17.5704 59.191 17.2261 58.2959 16.8474 57.7795C16.3999 57.1943 15.6769 56.9533 14.954 57.091C12.7507 57.5385 12.6818 60.3615 12.6474 60.568C12.6818 60.0172 12.6818 59.4664 12.7163 59.0188C12.7507 57.1254 14.5753 55.7828 16.3654 56.2992C16.3884 56.2992 16.4113 56.3106 16.4343 56.3336C17.5704 56.6779 18.3622 57.7107 18.431 58.8811C18.7408 63.7008 18.0179 68.7615 18.0179 68.7615C18.7753 66.0762 20.3589 64.4582 21.5294 63.4598C22.2867 62.7713 23.3884 62.668 24.249 63.1844C24.272 63.2074 24.2949 63.2303 24.3179 63.2533C25.0064 63.6664 25.3507 64.3893 25.3507 65.1467Z" fill="#648D12"/>
<path d="M10.7189 59.8104C9.99593 58.7432 8.82544 58.399 8.13691 58.2957C7.7238 58.2268 7.27626 58.2957 6.89757 58.5022C6.20904 58.8465 5.93363 59.4318 5.79593 59.9137C5.72708 60.258 5.72708 60.6022 5.79593 60.9809C6.38117 63.3219 8.34347 70.517 8.34347 70.517L4.69429 68.1416C4.35003 67.9006 3.97134 67.7629 3.55822 67.694C3.17954 67.6596 2.90413 67.7285 2.69757 67.7973C2.45658 67.8662 2.25003 68.0039 2.07789 68.176C1.32052 69.0367 1.52708 70.2416 1.76806 70.9645C1.72216 70.9186 1.67625 70.8842 1.63035 70.8613C0.700844 70.0695 0.459861 68.7268 1.11396 67.7285C1.13691 67.7055 1.14839 67.6826 1.14839 67.6596C1.87134 66.5924 3.38609 66.3514 4.45331 67.1088C6.14019 68.2449 7.58609 69.4153 7.58609 69.4153C6.62216 67.0055 5.45167 63.3563 4.76314 61.2219C4.3156 59.7072 5.03855 58.0891 6.48445 57.4695C6.5074 57.4695 6.53035 57.4695 6.5533 57.4695C8.10249 56.8498 9.8238 57.6416 10.4435 59.1563C10.5353 59.3629 10.6271 59.5809 10.7189 59.8104Z" fill="#648D12"/>
<path d="M36.2279 87.0121C36.2279 87.0121 33.8181 89.8006 29.687 91.5563C31.9935 88.699 31.2706 85.2219 30.4788 83.1563C31.3738 82.5711 32.2689 81.8481 33.1296 80.9875L36.2279 87.0121Z" fill="#29234E"/>
<path d="M34.852 89.9009C34.852 89.9009 20.0832 62.291 46.5225 45.8353C60.6029 37.091 79.0209 39.191 90.1406 51.4812C90.4389 51.8025 90.7258 52.1238 91.0012 52.4451C99.1947 62.1533 100.95 75.8205 95.2701 87.1812C95.1324 87.4566 94.9832 87.732 94.8225 88.0074C94.8225 88.0074 97.0258 88.1795 98.4717 90.1074C100.503 92.8615 99.1258 96.8205 95.8898 97.991C93.8586 98.7484 90.7947 98.8861 86.3537 97.1648C86.3537 97.1648 77.5061 103.637 68.4865 99.9189C65.5602 98.714 62.4619 97.8877 59.2602 97.7156C56.1619 97.5091 52.2717 97.5435 48.2783 98.232C45.8684 98.6451 43.5619 99.4369 41.3242 100.47C39.7062 101.193 36.952 102.053 33.9914 101.262C31.7193 100.642 30.0668 98.6451 30.0324 96.3041C29.998 94.2386 30.893 91.691 34.852 89.9009Z" fill="#648D12"/>
<path d="M95.5449 59.679C95.5449 59.679 97.0941 62.5709 99.5384 63.3282C100.296 63.5692 100.984 64.0856 101.294 64.8086C101.294 64.8315 101.294 64.8545 101.294 64.8774C101.81 66.1168 100.812 67.4594 99.5039 67.3905C98.6433 67.3561 97.6105 66.943 96.5777 65.5315L95.5449 59.679Z" fill="#648D12"/>
<path d="M42.355 48.7656C42.355 48.8344 42.1484 48.9377 42.114 48.9722C41.8845 49.1558 41.655 49.3279 41.4255 49.4885C40.6681 50.0049 39.8419 50.4525 39.0156 50.7623C38.3271 51.0377 37.6386 51.2443 36.9156 51.3131C36.1582 51.382 35.4009 51.1754 34.6779 51.3131C34.0582 51.4508 33.4386 51.7263 32.991 52.2082C31.8894 53.3443 32.3714 55.2722 33.8861 55.823C34.4369 56.0295 35.1255 56.1672 36.0205 56.064C38.155 55.8574 40.0484 54.6181 41.1501 52.7935C41.7353 51.7607 42.2517 50.4525 42.355 48.7656Z" fill="#648D12"/>
<path d="M95.89 97.9901C93.8589 98.7474 90.795 98.8851 86.354 97.1638C86.354 97.1638 78.0572 103.223 69.3474 100.228C84.9081 96.854 91.2769 83.0835 91.0359 69.6228C90.8294 57.8835 85.2179 47.0392 76.0605 42.2884C81.3277 44.0442 86.1818 47.1425 90.1409 51.4802C90.4392 51.8015 90.7261 52.1228 91.0015 52.4442C99.195 62.1524 100.951 75.8196 95.2704 87.1802C95.1327 87.4556 94.9835 87.731 94.8228 88.0064C94.8228 88.0064 97.0261 88.1786 98.472 90.1064C100.503 92.8605 99.1261 96.8196 95.89 97.9901Z" fill="#5C7E1C"/>
<path d="M95.5449 59.679C95.5449 59.679 97.0941 62.5709 99.5384 63.3282C100.296 63.5692 100.984 64.0856 101.294 64.8086C101.294 64.8315 101.294 64.8545 101.294 64.8774C101.81 66.1168 100.812 67.4594 99.5039 67.3905C98.6433 67.3561 97.6105 66.943 96.5777 65.5315L95.5449 59.679Z" fill="#5C7E1C"/>
<path d="M38.7422 55.164C27.0029 71.2755 36.3324 90.8985 36.3324 90.8985C35.2307 91.3116 34.3701 91.828 33.716 92.3444C32.4078 93.446 31.616 95.0985 31.7193 96.8198C31.9602 100.503 36.1602 101.364 37.2963 101.536C36.2635 101.639 35.1619 101.571 33.9914 101.261C31.7193 100.641 30.0668 98.6444 30.0324 96.3034C29.998 94.2378 30.893 91.6903 34.852 89.9001C34.852 89.9001 25.1094 71.7231 35.575 56.0935C35.7127 56.0935 35.8619 56.0821 36.0225 56.0591C36.9865 55.9558 37.916 55.646 38.7422 55.164Z" fill="#648D12"/>
<path d="M91.003 52.4451C90.7276 52.1238 90.4407 51.8025 90.1423 51.4812C79.0226 39.191 60.6046 37.091 46.5243 45.8353C45.0095 46.7763 43.621 47.7517 42.3587 48.7615L42.1521 48.9681C42.1292 48.9681 42.1177 48.9681 42.1177 48.9681C42.1177 48.9681 42.1177 48.9795 42.1177 49.0025C41.8882 49.1631 41.6587 49.3238 41.4292 49.4845C40.6718 50.0009 39.8456 50.4484 39.0194 50.7582C38.3308 51.0336 37.6423 51.2402 36.9194 51.3091C36.162 51.3779 35.4046 51.1714 34.6817 51.3091C34.062 51.4468 33.4423 51.7222 32.9948 52.2041C32.1341 53.0648 32.2374 54.4074 32.9948 55.2336C32.9259 54.4763 33.1325 53.7533 33.7866 53.2713C34.6817 52.6172 35.7489 52.7205 36.7472 52.6861C37.298 52.6632 37.8374 52.6172 38.3653 52.5484C38.3882 52.5254 38.4112 52.514 38.4341 52.514C38.6636 52.491 38.9046 52.4451 39.1571 52.3763C40.6718 52.0664 42.0144 51.3435 43.1849 50.3795C44.0456 49.6222 44.9407 48.9681 46.9374 47.7976C51.998 44.8025 60.7767 41.1189 71.7931 42.8746C71.7931 42.8746 88.9718 45.1812 95.9259 60.432C94.721 57.5746 93.0685 54.8894 91.003 52.4451Z" fill="#648D12"/>
<path d="M103.426 104.844C103.426 104.844 104.459 103.811 106.283 104.018L106.18 103.398C106.18 103.398 104.287 103.226 103.013 104.672C103.013 104.672 103.22 104.775 103.426 104.844Z" fill="#29234E"/>
<path d="M18.015 68.762C18.015 68.762 17.3265 70.3112 17.1888 71.4816C17.1888 71.4816 14.1937 71.998 13.1265 74.58C13.1265 74.58 13.4707 71.6538 16.6035 70.9653C16.6035 70.9653 17.3265 68.4177 18.1871 67.2128L18.015 68.762Z" fill="#29234E"/>
<path fill-rule="evenodd" clip-rule="evenodd" d="M90.5531 51.1325C90.8285 51.4538 91.1153 51.7751 91.4137 52.0965C93.376 54.4374 94.994 57.0194 96.2334 59.7735C96.7153 60.5309 97.9891 62.2866 99.676 62.803C100.64 63.1129 101.397 63.7669 101.776 64.5932L101.81 64.662C102.086 65.385 102.017 66.2112 101.569 66.8653C101.122 67.5194 100.365 67.9325 99.5727 67.9325C99.5498 67.9325 99.5154 67.9325 99.4694 67.9325C99.194 67.9096 98.9186 67.8637 98.6432 67.7948C99.0219 69.8604 99.0908 74.0604 99.0908 74.0604C99.0908 74.0604 113.825 83.2522 113.515 92.0997C113.492 92.7424 113.458 93.385 113.412 94.0276C116.166 94.8538 118.438 96.7817 119.643 99.3981C119.804 99.7424 119.942 100.098 120.056 100.465C120.607 102.049 120.71 103.701 120.332 105.251C119.574 108.452 117.474 109.003 116.51 109.072C116.373 109.806 116.051 110.449 115.546 111C114.755 111.792 113.619 112.273 112.448 112.273C112.356 112.273 112.265 112.273 112.173 112.273C110.83 112.17 110.004 111.792 109.591 111.551C108.592 112.033 107.663 112.273 106.733 112.273C106.619 112.273 106.504 112.262 106.389 112.239C104.806 112.136 103.394 111.241 102.602 109.864C101.81 108.452 101.742 106.765 102.465 105.354C102.51 105.239 102.568 105.136 102.637 105.044C100.915 104.011 100.606 101.946 100.674 100.947C101.156 96.5407 104.392 94.8538 105.873 94.303C105.804 86.2473 101.673 82.9424 97.9547 81.5997C97.4039 83.5965 96.6809 85.5588 95.7514 87.4178C95.7055 87.4866 95.6711 87.5555 95.6481 87.6243C96.4744 87.8309 97.8514 88.4161 98.8842 89.7932C99.917 91.1702 100.227 92.926 99.7449 94.6129C99.194 96.403 97.8514 97.8489 96.0957 98.503C95.0629 98.8473 93.8924 99.0538 92.653 99.0538C90.794 99.0538 88.694 98.6063 86.4219 97.7801C86.2153 97.9178 85.9055 98.0899 85.4924 98.3653C86.835 100.155 87.9711 102.118 88.9006 104.114C89.9334 106.318 89.899 108.865 88.7973 111.069C85.8022 117.128 82.635 122.464 82.6006 122.533L82.3596 122.911L81.9465 122.739L75.0268 120.019L74.476 119.778L74.7514 119.262L80.7072 108.074C79.8465 105.974 78.5727 103.736 76.8858 101.429C76.0367 101.544 75.2104 101.601 74.4071 101.601C72.2727 101.601 70.2072 101.188 68.2793 100.396C65.2153 99.1571 62.1514 98.3997 59.2252 98.2276C58.1924 98.1588 57.1596 98.1243 56.058 98.1243C53.9924 100.569 51.2383 104.149 49.6547 108.074L55.6104 119.262L55.8858 119.778L55.335 120.019L48.4153 122.739L48.0022 122.911L47.7612 122.533C47.7268 122.464 44.5252 117.128 41.5645 111.069C40.4629 108.865 40.4285 106.318 41.4613 104.114C42.0809 102.737 42.8383 101.36 43.699 100.052C42.9875 100.305 42.276 100.603 41.5645 100.947C40.394 101.464 38.5695 102.118 36.4694 102.118C35.5744 102.118 34.6793 101.98 33.8531 101.774C31.2711 101.051 29.5153 98.8817 29.4809 96.2997C29.4465 94.7161 29.9629 92.6506 32.1317 90.8948C30.3416 91.962 28.1039 92.8915 25.4186 93.3047C24.7531 93.3965 24.0875 93.4424 23.4219 93.4424C17.6039 93.4424 12.6465 89.5866 11.0629 83.8374C10.6842 82.5292 10.4432 81.0833 10.3055 79.603C7.48257 78.8801 6.10551 77.1243 5.41699 75.7817C4.9006 74.6801 4.14322 73.7161 3.24814 72.9243C2.6629 72.4079 2.00879 71.8571 1.28584 71.2719C0.115351 70.3079 -0.125628 68.6555 0.666175 67.4161L0.700598 67.3817C1.21699 66.5899 2.11208 66.1424 3.07601 66.1424C3.69568 66.1424 4.28093 66.3145 4.76289 66.6587C5.34814 67.0719 5.93339 67.485 6.41535 67.8292C5.58912 65.5915 4.76289 62.9407 4.2465 61.3915C3.69568 59.6014 4.59076 57.6735 6.27765 56.985L6.38093 56.9506C6.77109 56.7899 7.18421 56.7096 7.62027 56.7096C9.06617 56.7096 10.3744 57.6047 10.9252 58.9473C11.3727 59.9801 11.7514 61.185 12.0957 62.3555C12.1301 61.0817 12.1301 59.9112 12.1645 58.9817C12.2334 57.1571 13.7481 55.6424 15.5727 55.6424C15.894 55.6424 16.2154 55.6883 16.5367 55.7801L16.6055 55.8145C17.9137 56.2276 18.8777 57.4325 18.9465 58.844C19.1186 61.2538 19.0154 63.6981 18.8776 65.5915C19.635 64.4899 20.4957 63.6637 21.1842 63.044C21.7006 62.562 22.3891 62.3211 23.0777 62.3211C23.594 62.3211 24.076 62.4587 24.5235 62.7342L24.6268 62.803C25.3842 63.285 25.8317 64.0768 25.9006 64.9719C25.935 65.9014 25.5563 66.8309 24.8334 67.4161C23.8006 68.2768 23.2842 69.4817 23.1465 69.826C23.835 75.3342 20.8744 77.7784 18.7744 78.8112C18.7973 78.926 18.8203 79.0522 18.8432 79.1899C19.5317 82.2883 22.217 84.4571 25.3842 84.4571C26.417 84.4571 27.4153 84.2161 28.3449 83.7686C29.4121 83.2522 30.4104 82.5981 31.3744 81.8407C29.7219 75.162 29.0334 65.5227 34.6449 56.5719C34.3006 56.526 33.9793 56.4456 33.6809 56.3309C32.7858 55.9866 32.1317 55.2292 31.9252 54.2997C31.7186 53.3702 31.9596 52.4751 32.6137 51.8211C33.1301 51.3047 33.7842 50.926 34.576 50.7883C34.7826 50.7424 35.0121 50.7194 35.2645 50.7194C35.494 50.7424 35.7235 50.7538 35.9531 50.7538C36.1367 50.7768 36.3317 50.7883 36.5383 50.7883C36.653 50.7883 36.7678 50.7883 36.8826 50.7883C37.5022 50.7194 38.1449 50.5473 38.8104 50.2719C39.5678 49.962 40.3252 49.5489 41.117 49.0325C41.3235 48.8948 41.5416 48.7456 41.7711 48.585V48.5506L41.8055 48.5161H41.8399L41.9432 48.4128L42.0121 48.3784L42.3219 48.7227L42.3563 48.7571L42.0465 48.344C43.3547 47.3112 44.7662 46.3128 46.2465 45.3833C51.9268 41.8374 58.4678 39.9784 65.1465 39.9784C74.8547 39.9784 84.1153 44.0407 90.5531 51.1325ZM46.5219 45.8309C45.0071 46.7719 43.6186 47.7587 42.3563 48.7915C42.2875 48.8374 42.2186 48.8948 42.1498 48.9637C42.1268 48.9637 42.1153 48.9637 42.1153 48.9637C42.1153 48.9637 42.1153 48.9751 42.1153 48.9981C41.8858 49.1588 41.6563 49.3194 41.4268 49.4801C40.6694 49.9965 39.8432 50.444 39.017 50.7538C38.3285 51.0292 37.6399 51.2358 36.917 51.3047C36.8022 51.3276 36.676 51.3391 36.5383 51.3391C36.1252 51.3391 35.6776 51.2702 35.2645 51.2702C35.058 51.2702 34.8629 51.2817 34.6793 51.3047C34.0596 51.4424 33.4399 51.7178 32.9924 52.1997C31.8908 53.3358 32.3727 55.2637 33.8875 55.8145C34.3006 55.9866 34.817 56.0899 35.4367 56.0899C35.4826 56.0899 35.5285 56.0899 35.5744 56.0899C29.4465 65.2473 30.2727 75.2997 31.9596 82.0473C30.8235 83.0112 29.6531 83.6997 28.5858 84.2506C27.5186 84.7669 26.4514 84.9735 25.3842 84.9735C22.1137 84.9735 19.0842 82.7702 18.3268 79.2932C18.258 79.0178 18.2006 78.7538 18.1547 78.5014C20.2203 77.6407 23.3531 75.3342 22.5957 69.7571C22.5957 69.7571 23.1121 68.1391 24.4891 67.003C25.694 66.0046 25.6596 64.0768 24.317 63.2506C24.294 63.2276 24.2711 63.2047 24.2481 63.1817C23.8695 62.9751 23.4908 62.8719 23.0777 62.8719C22.5268 62.8719 21.976 63.044 21.5285 63.4571C20.358 64.4555 18.7744 66.0735 18.017 68.7587C18.017 68.7587 18.7399 63.6981 18.4301 58.8784C18.3613 57.7079 17.5694 56.6751 16.4334 56.3309C16.4104 56.3079 16.3875 56.2965 16.3645 56.2965C16.1121 56.2276 15.8481 56.1932 15.5727 56.1932C14.058 56.1932 12.7498 57.3981 12.7154 59.0161C12.6465 60.8751 12.5776 63.8358 12.6465 66.6243C12.6465 66.6243 11.6481 62.0801 10.4432 59.1538C9.96125 57.9833 8.82519 57.2604 7.62027 57.2604C7.27601 57.2604 6.92027 57.3292 6.55306 57.4669C6.53011 57.4669 6.50716 57.4669 6.48421 57.4669C5.0383 58.0866 4.31535 59.7047 4.76289 61.2194C5.45142 63.3538 6.62191 67.003 7.58584 69.4128C7.58584 69.4128 6.13995 68.2768 4.45306 67.1063C4.03994 66.7965 3.55798 66.6587 3.07601 66.6587C2.31863 66.6587 1.59568 67.003 1.14814 67.6571C1.14814 67.6801 1.13666 67.703 1.11371 67.726C0.459613 68.7243 0.700597 70.0669 1.63011 70.8588C2.18092 71.3063 2.90388 71.926 3.5924 72.5112C4.55634 73.3374 5.34814 74.3702 5.89896 75.5407C6.51863 76.7801 7.89568 78.5702 10.7875 79.1899C10.9252 80.8768 11.2006 82.3571 11.5793 83.6997C13.1285 89.2768 17.8449 92.926 23.4219 92.926C24.0645 92.926 24.7071 92.8686 25.3498 92.7538C29.3776 92.1686 32.4416 90.2407 34.3006 88.7948C34.6449 89.5178 34.8514 89.8965 34.8514 89.8965C30.8924 91.6866 29.9973 94.2342 30.0317 96.2997C30.0662 98.6407 31.7186 100.637 33.9908 101.257C34.8514 101.464 35.6776 101.567 36.4694 101.567C38.4317 101.567 40.1531 100.982 41.3236 100.465C42.5399 99.8915 43.7793 99.4096 45.0416 99.0194C43.6301 100.982 42.6317 102.841 41.9432 104.321C40.9793 106.387 41.0137 108.796 42.0121 110.828C45.0416 116.921 48.2088 122.257 48.2088 122.257L55.1285 119.503L49.035 108.108C50.7219 103.942 53.6481 100.087 55.817 97.6079C55.8858 97.6079 55.9432 97.6079 55.9891 97.6079C57.1596 97.6079 58.2612 97.6424 59.2596 97.7112C62.4612 97.8833 65.5596 98.7096 68.4858 99.9145C70.517 100.741 72.5137 101.051 74.4071 101.051C75.3367 101.051 76.2662 100.982 77.1268 100.844C78.7104 102.978 80.2596 105.457 81.3268 108.108L75.2334 119.503L82.153 122.257C82.153 122.257 85.3203 116.921 88.3154 110.828C89.3481 108.796 89.3826 106.387 88.4186 104.321C87.6268 102.634 86.4563 100.465 84.7006 98.1932C85.7334 97.6079 86.3531 97.1604 86.3531 97.1604C88.8662 98.1587 90.9662 98.5374 92.653 98.5374C93.9612 98.5374 95.0285 98.2965 95.8891 97.9866C99.1252 96.8161 100.502 92.8571 98.4711 90.103C97.0252 88.1751 94.8219 88.003 94.8219 88.003C94.9826 87.7276 95.1317 87.4522 95.2694 87.1768C96.2678 85.1456 97.0596 83.0456 97.6104 80.8768C101.466 82.1161 106.458 85.4899 106.389 94.6817C105.184 95.0604 101.707 96.5407 101.225 100.982C101.225 100.982 100.984 103.874 103.428 104.837C103.428 104.837 103.187 105.113 102.946 105.595C101.604 108.246 103.428 111.516 106.424 111.723C106.538 111.723 106.642 111.723 106.733 111.723C107.56 111.723 108.524 111.516 109.625 110.931C109.625 110.931 110.417 111.619 112.207 111.723C112.276 111.723 112.356 111.723 112.448 111.723C113.446 111.723 114.445 111.344 115.133 110.621C115.581 110.139 115.96 109.485 116.063 108.555C116.063 108.555 116.132 108.555 116.235 108.555C116.889 108.555 119.058 108.314 119.815 105.113C120.194 103.633 120.056 102.083 119.54 100.637C119.448 100.316 119.322 99.9833 119.161 99.6391C117.922 96.9883 115.547 95.1292 112.827 94.4407C112.896 93.7522 112.965 92.9604 112.999 92.0653C113.274 83.3555 98.5399 74.5424 98.5399 74.5424C98.5399 74.5424 98.4367 69.3784 97.9547 66.8309C98.5055 67.2096 99.0219 67.3817 99.5039 67.3817C99.5268 67.4047 99.5498 67.4161 99.5727 67.4161C100.881 67.4161 101.81 66.0735 101.294 64.8686C101.294 64.8456 101.294 64.8227 101.294 64.7997C100.984 64.0768 100.296 63.5604 99.5383 63.3194C97.6104 62.7342 96.2678 60.8407 95.7514 60.0489C94.5465 57.3292 92.9629 54.7817 91.0006 52.4407C90.7252 52.1194 90.4383 51.7981 90.1399 51.4768C83.5645 44.2129 74.4072 40.4948 65.1465 40.4948C58.7432 40.4948 52.2711 42.2506 46.5219 45.8309ZM34.1285 89.6555C34.1055 89.6555 34.094 89.644 34.094 89.621C34.0252 89.667 33.9563 89.7243 33.8875 89.7932C33.9563 89.7473 34.0367 89.7014 34.1285 89.6555Z" fill="#29234E"/>
<path d="M18.1542 78.5068C18.1542 78.5068 15.8476 79.4019 12.9558 79.4363C12.9558 79.4363 15.5722 80.1937 18.3952 78.9888L18.1542 78.5068Z" fill="#29234E"/>
<path d="M45.2475 86.6312C45.2475 86.6312 43.595 88.1116 43.4229 89.7296C43.2852 91.1066 45.1098 91.864 45.936 90.728C46.1425 90.4525 46.3147 90.246 46.5212 89.523C46.5212 89.523 46.2458 90.9345 46.4868 91.7952C46.7966 92.8624 48.036 93.0345 48.6557 92.0017C48.7589 91.8296 49.0343 91.1755 48.9311 90.487C48.9311 90.487 49.3442 91.7952 48.6557 92.6214C48.0016 93.4476 46.6934 93.2755 46.1426 92.3804C46.0048 92.1394 45.9016 91.864 45.8327 91.5542C45.8327 91.5542 45.6262 91.7263 45.213 91.8296C44.1458 92.1394 43.0786 91.3132 43.0098 90.2116C42.9409 89.2476 43.3196 87.9394 45.2475 86.6312Z" fill="#29234E"/>
<path d="M89.6922 79.4059C89.6922 79.4059 91.2414 81.5403 90.8972 83.124C90.5873 84.501 88.7972 84.7764 88.0053 83.6059C87.6955 83.124 87.4545 82.4354 87.4545 81.4026C87.4545 81.4026 87.2135 82.7797 87.6955 83.8813C88.384 85.4994 90.7939 85.2584 91.2758 83.5715C91.5512 82.642 91.3103 81.3338 89.6922 79.4059Z" fill="#29234E"/>
<path d="M58.7781 49.2775C58.7781 49.2775 56.6781 50.9299 56.6092 52.548C56.5404 53.9594 58.1928 54.6824 59.2945 53.7873C59.7076 53.4086 60.1207 52.8234 60.3961 51.7906C60.3961 51.7906 60.2584 53.2021 59.5355 54.1316C58.4338 55.5086 56.1273 54.648 56.1273 52.8922C56.1273 51.9283 56.7125 50.7234 58.7781 49.2775Z" fill="#29234E"/>
<path d="M97.9553 66.8291C97.9553 66.8291 96.8881 66.2438 96.3029 64.9356C96.3029 64.9356 96.3029 67.0012 98.2307 67.6897L97.9553 66.8291Z" fill="#29234E"/>
<path d="M35.5763 56.0946C35.5763 56.0946 37.814 56.1635 39.7419 54.4422C39.7419 54.4422 38.778 56.9553 35.0255 56.611L35.5763 56.0946Z" fill="#29234E"/>
<path d="M52.8904 113.761L45.0757 118.821L48.1396 123.607L46.3494 125.913C46.3494 125.913 46.0052 125.259 45.2134 124.57C43.4232 123.159 40.9101 123.159 39.0167 124.467C37.6052 125.431 35.7462 127.6 36.6413 131.662H52.1331L58.9839 123.813L52.8904 113.761Z" fill="#5C7E1C"/>
<path d="M36.6412 131.667H52.133L58.9838 123.818L56.7461 120.1C56.7461 120.1 53.6133 131.254 36.7445 127.467C36.3658 128.569 36.2625 129.946 36.6412 131.667Z" fill="#1B5110"/>
<path d="M36.4348 130.28C36.4348 130.143 36.297 126.149 40.2216 124.876C41.5298 124.428 43.0102 124.394 44.2839 124.979C45.4544 125.495 46.7626 126.597 47.2102 128.972C47.2102 128.972 47.5544 127.698 46.8659 126.287L49.3102 123.498L46.0052 118.197L45.0757 118.817L48.1397 123.602L46.3495 125.943C46.3495 125.943 46.0052 125.254 45.2134 124.566C43.4233 123.154 40.9102 123.154 39.0167 124.462C37.7774 125.323 36.1938 127.113 36.4348 130.28Z" fill="#5C7E1C"/>
<path fill-rule="evenodd" clip-rule="evenodd" d="M53.3401 113.488L59.4335 123.54L59.6401 123.885L59.3991 124.194L52.5138 132.044L52.3761 132.216H36.1958L36.1269 131.803C35.1286 127.293 37.3319 124.986 38.7089 124.022C39.7073 123.334 40.8778 122.955 42.0827 122.955C43.3564 122.955 44.5958 123.403 45.5253 124.16C45.904 124.47 46.1794 124.78 46.386 125.021L47.4876 123.575L44.6302 119.099L44.3548 118.652L44.8023 118.376L52.6171 113.316L53.0646 113.006L53.3401 113.488ZM45.0778 118.824L48.1417 123.644L46.3171 125.95C46.3171 125.95 46.0073 125.262 45.181 124.608C44.286 123.85 43.1843 123.506 42.0827 123.506C41.0155 123.506 39.9483 123.816 39.0187 124.47C37.6073 125.468 35.7483 127.603 36.6089 131.699H52.1007L58.986 123.85L52.8925 113.763L45.0778 118.824Z" fill="#29234E"/>
<path d="M36.4365 130.282C36.4594 130.718 36.5283 131.177 36.643 131.659H52.1348L58.9856 123.81L58.1938 122.502L51.3774 130.282H36.4365Z" fill="white"/>
<path fill-rule="evenodd" clip-rule="evenodd" d="M58.6393 122.229L59.4311 123.537L59.6376 123.881L59.3967 124.191L52.5114 132.04L52.3737 132.213H36.1934L36.1245 131.8C36.0098 131.272 35.9295 130.79 35.8835 130.354L35.8491 129.768H51.1344L57.7786 122.16L58.2606 121.609L58.6393 122.229ZM51.3754 130.285H36.4344C36.4573 130.721 36.5262 131.18 36.6409 131.662H52.1327L58.9836 123.813L58.1918 122.504L51.3754 130.285Z" fill="#29234E"/>
<path d="M46.3491 125.911C46.3491 125.911 47.1065 127.116 47.2098 128.975C47.2098 128.975 47.8295 127.116 46.6245 125.567L46.3491 125.911Z" fill="#29234E"/>
<path d="M53.6487 114.962L45.9028 120.091" stroke="#29234E" stroke-width="0.447541" stroke-linecap="round" stroke-linejoin="round" stroke-dasharray="0.24 0.24"/>
<path d="M47.2449 122.19L47.7268 122.913L49.0695 123.12L49.517 123.189H49.5514C49.6891 123.189 49.7924 123.085 49.8268 122.948C49.8268 122.81 49.7236 122.672 49.5859 122.638L48.6908 122.535L47.7613 122.397L47.899 121.261L48.0023 120.572C48.0023 120.435 47.899 120.297 47.7613 120.297C47.6236 120.263 47.4859 120.366 47.4514 120.504V120.538L47.2449 122.19Z" fill="white"/>
<path fill-rule="evenodd" clip-rule="evenodd" d="M47.7937 119.746H47.8281C48.2756 119.814 48.5855 120.228 48.5166 120.641L48.4478 121.295V121.329L48.3789 121.949L48.7576 121.983L49.6527 122.121C49.8592 122.121 50.0658 122.259 50.2035 122.431C50.3068 122.603 50.3756 122.81 50.3412 123.016C50.2723 123.395 49.9625 123.705 49.5494 123.705H49.4805H49.4461L48.9641 123.636L47.656 123.464L47.3805 123.429L47.2773 123.223L46.7953 122.5L46.7264 122.362V122.19V122.155L46.933 120.503V120.469C46.9674 120.055 47.3117 119.746 47.7248 119.746H47.7937ZM47.4494 120.503V120.537L47.2428 122.19V122.224L47.7248 122.913L49.0674 123.119L49.515 123.154H49.5494C49.6871 123.154 49.7904 123.085 49.8248 122.947C49.8248 122.81 49.7215 122.672 49.5838 122.637L48.6887 122.5L47.7592 122.396L47.8969 121.26L48.0002 120.572C48.0002 120.434 47.8969 120.296 47.7592 120.296C47.7363 120.296 47.7248 120.296 47.7248 120.296C47.5871 120.296 47.4838 120.365 47.4494 120.503Z" fill="#29234E"/>
<path opacity="0.3" d="M47.7613 122.403L47.3482 122.334L47.2449 122.197L47.2793 121.99L47.7957 122.093L47.7613 122.403Z" fill="#401917"/>
<path d="M62.8722 73.7203C63.0788 75.5105 61.5985 77.163 59.5673 77.4039C57.5706 77.6449 55.746 76.3711 55.5394 74.581C55.3329 72.7908 56.8132 71.1384 58.8099 70.8974C60.8411 70.6564 62.6657 71.9302 62.8722 73.7203Z" fill="#29234E"/>
<path d="M62.5972 74.5136C62.7693 76.0972 61.3923 77.5431 59.5333 77.784C57.6398 77.9906 55.953 76.889 55.7808 75.3054C55.6087 73.7217 56.9857 72.2414 58.8448 72.0349C60.7382 71.8283 62.4251 72.9299 62.5972 74.5136Z" fill="#648D12"/>
<path d="M55.681 81.3995C55.681 81.3995 61.258 83.4995 65.2515 79.6093C65.2515 79.6093 64.9761 80.8831 63.4957 81.9848C62.1187 83.0175 60.3629 83.3274 58.6761 83.0175C57.54 82.811 56.3006 82.3634 55.681 81.3995Z" fill="#29234E"/>
<path d="M53.1665 78.1293C53.1665 78.1293 54.1648 70.5899 51.7894 65.426C49.5517 60.5719 42.9419 59.8834 39.8779 64.2555C38.0189 66.8719 36.814 71.4506 38.1566 79.4375C38.1566 79.4375 43.9058 74.9621 53.1665 78.1293Z" fill="white"/>
<mask id="mask0_323_18795" style="mask-type:luminance" maskUnits="userSpaceOnUse" x="37" y="61" width="17" height="19">
<path d="M53.1544 78.1203C53.1544 78.1203 54.1528 70.5741 51.7877 65.4171C49.5603 60.5492 42.9367 59.871 39.8625 64.2535C38.031 66.863 36.8192 71.4313 38.1687 79.4182C38.1687 79.4182 43.9041 74.96 53.1544 78.1203Z" fill="white"/>
</mask>
<g mask="url(#mask0_323_18795)">
<path d="M54.7837 71.2426C54.7837 75.5804 52.1328 79.1263 48.8624 79.1263C45.5919 79.1263 42.941 75.5804 42.941 71.2426C42.941 66.8705 45.5919 63.3246 48.8624 63.3246C52.1328 63.3246 54.7837 66.8705 54.7837 71.2426Z" fill="#29234E"/>
<path d="M42.6305 66.4943L47.0715 68.3877L42.1141 70.3845L42.6305 66.4943Z" fill="white"/>
</g>
<path d="M53.1669 78.1271C53.1669 78.1271 54.1652 70.5877 51.7898 65.4238C49.5521 60.5697 42.9423 59.8812 39.8784 64.2533C38.0193 66.8697 36.8144 71.4484 38.1915 79.4353C35.1275 73.8926 36.8144 67.2828 36.8144 67.2828C37.9849 62.0844 41.1521 60.3631 43.9407 59.9156C47.2456 59.3648 50.5161 60.8795 52.3062 63.7713C55.9554 69.7615 53.1669 78.1271 53.1669 78.1271Z" fill="#29234E"/>
<path d="M70.1385 77.5445C70.1385 77.5445 75.75 74.6871 84.4943 77.097C84.4943 77.097 87.9025 66.8035 83.3238 61.2609C79.5369 56.6478 72.2041 58.1281 70.2074 63.7396C69.1746 66.6658 68.8303 71.0035 70.1385 77.5445Z" fill="white"/>
<path d="M84.4938 77.097C84.5971 76.7183 87.7987 66.7003 83.3233 61.2609C79.5364 56.6478 72.2036 58.1281 70.2069 63.7396C69.1741 66.6658 68.8298 71.0035 70.138 77.5445C70.138 77.5445 66.6266 71.3134 68.9676 63.4642C69.7938 60.6757 71.9282 58.3691 74.6823 57.474C76.3003 56.9577 78.2626 56.8199 80.4659 57.6806C83.9774 59.0577 86.3184 62.4314 86.7315 66.2183C87.0413 69.2478 86.8003 73.3101 84.4938 77.097Z" fill="#29234E"/>
<mask id="mask1_323_18795" style="mask-type:luminance" maskUnits="userSpaceOnUse" x="69" y="58" width="17" height="20">
<path d="M70.1534 77.5356C70.1534 77.5356 75.7477 74.6679 84.4919 77.0949C84.4919 77.0949 87.8967 66.7911 83.3352 61.2554C79.5311 56.6423 72.219 58.1192 70.2119 63.7513C69.1791 66.65 68.8315 71.0015 70.1534 77.5356Z" fill="white"/>
</mask>
<g mask="url(#mask1_323_18795)">
<path d="M68.5549 69.6259C68.5549 74.4112 71.4467 78.3013 75.027 78.3013C78.6073 78.3013 81.5336 74.4112 81.5336 69.6259C81.5336 64.8407 78.6073 60.9849 75.027 60.9849C71.4467 60.9849 68.5549 64.8407 68.5549 69.6259Z" fill="#29234E"/>
<path d="M81.8451 64.4302L76.991 66.5302L82.3959 68.6991L81.8451 64.4302Z" fill="white"/>
</g>
<path d="M74.8205 54.8265C74.8205 54.8265 76.5762 54.3101 79.1238 54.6888C82.0844 55.1363 84.7697 56.7199 86.5943 59.1298C87.0418 59.7494 87.4894 60.438 87.7992 61.2298C87.7992 61.2298 87.868 60.4035 87.5926 59.2675C86.732 55.8593 83.668 53.5527 80.191 53.3806C78.3664 53.2773 76.232 53.5183 74.8205 54.8265Z" fill="#29234E"/>
<path d="M47.2083 57.4668C47.2083 57.4668 43.5247 56.7095 39.8411 58.7406C39.8411 58.7406 37.1214 60.2898 35.9853 62.975C35.9853 62.975 35.9509 62.2521 36.1919 61.2882C36.9148 58.3619 39.5657 56.3308 42.5607 56.1931C44.1099 56.1242 45.9689 56.3308 47.2083 57.4668Z" fill="#29234E"/>
<path d="M77.4719 113.761L85.2867 118.821L82.2227 123.607L84.0129 125.913C84.0129 125.913 84.3572 125.259 85.149 124.57C86.9391 123.159 89.4522 123.159 91.3457 124.467C92.7572 125.431 94.6162 127.6 93.7211 131.662H78.2293L71.3785 123.813L77.4719 113.761Z" fill="#5C7E1C"/>
<path d="M93.7211 131.667H78.2293L71.3785 123.818L73.6162 120.1C73.6162 120.1 76.749 131.254 93.6178 127.467C93.9965 128.569 94.0998 129.946 93.7211 131.667Z" fill="#1B5110"/>
<path d="M93.927 130.28C93.927 130.143 94.0647 126.149 90.1402 124.876C88.832 124.428 87.3516 124.394 86.0779 124.979C84.9074 125.495 83.5992 126.597 83.1516 128.972C83.1516 128.972 82.8074 127.698 83.4959 126.287L81.0516 123.498L84.3566 118.197L85.2861 118.817L82.2221 123.602L84.0123 125.943C84.0123 125.943 84.3566 125.254 85.1484 124.566C86.9385 123.154 89.4516 123.154 91.3451 124.462C92.5844 125.323 94.168 127.113 93.927 130.28Z" fill="#5C7E1C"/>
<path fill-rule="evenodd" clip-rule="evenodd" d="M77.7485 113.316L85.5632 118.376L86.0108 118.652L85.7354 119.099L82.878 123.575L83.9796 125.021C84.1862 124.78 84.4616 124.47 84.8403 124.16C85.7698 123.403 87.0091 122.955 88.2829 122.955C89.4878 122.955 90.6583 123.334 91.6567 124.022C93.0337 124.986 95.237 127.293 94.2386 131.803L94.1698 132.216H77.9895L77.8517 132.044L70.9665 124.194L70.7255 123.885L70.9321 123.54L77.0255 113.488L77.3009 113.006L77.7485 113.316ZM71.3452 123.85L78.2304 131.699H93.7222C94.5829 127.603 92.7239 125.468 91.3124 124.47C90.4173 123.816 89.3157 123.506 88.2829 123.506C87.1468 123.506 86.0452 123.85 85.1501 124.608C84.3239 125.262 84.0141 125.95 84.0141 125.95L82.1895 123.644L85.2534 118.824L77.4386 113.763L71.3452 123.85Z" fill="#29234E"/>
<path d="M93.9277 130.282C93.9047 130.718 93.8359 131.177 93.7211 131.659H78.2293L71.3785 123.81L72.1703 122.502L78.9867 130.282H93.9277Z" fill="white"/>
<path fill-rule="evenodd" clip-rule="evenodd" d="M72.5845 122.16L79.2288 129.768H94.5141L94.4796 130.354C94.4337 130.79 94.3534 131.272 94.2386 131.8L94.1698 132.213H77.9895L77.8517 132.04L70.9665 124.191L70.7255 123.881L70.9321 123.537L71.7239 122.229L72.1026 121.609L72.5845 122.16ZM71.3796 123.813L78.2304 131.662H93.7222C93.837 131.18 93.9059 130.721 93.9288 130.285H78.9878L72.1714 122.504L71.3796 123.813Z" fill="#29234E"/>
<path d="M84.0108 125.911C84.0108 125.911 83.2534 127.116 83.1502 128.975C83.1502 128.975 82.5305 127.116 83.7354 125.567L84.0108 125.911Z" fill="#29234E"/>
<path d="M76.7171 114.962L84.463 120.091" stroke="#29234E" stroke-width="0.447541" stroke-linecap="round" stroke-linejoin="round" stroke-dasharray="0.24 0.24"/>
<path d="M83.1184 122.19L82.6364 122.913L81.2938 123.12L80.8463 123.189H80.8118C80.6741 123.189 80.5709 123.085 80.5364 122.948C80.5364 122.81 80.6397 122.672 80.7774 122.638L81.6725 122.535L82.602 122.397L82.4643 121.261L82.361 120.572C82.361 120.435 82.4643 120.297 82.602 120.297C82.7397 120.263 82.8774 120.366 82.9118 120.504V120.538L83.1184 122.19Z" fill="white"/>
<path fill-rule="evenodd" clip-rule="evenodd" d="M83.4286 120.469V120.503L83.6352 122.155V122.19V122.362L83.5663 122.5L83.0844 123.223L82.9811 123.429L82.7057 123.464L81.3975 123.636L80.9155 123.705H80.8811H80.8122C80.3991 123.705 80.0893 123.395 80.0204 123.016C79.986 122.81 80.0549 122.603 80.1581 122.431C80.2958 122.259 80.5024 122.121 80.709 122.121L81.604 121.983L81.9827 121.949L81.9139 121.329V121.295L81.845 120.641C81.7762 120.228 82.086 119.814 82.5335 119.746H82.6024H82.6368C83.0499 119.746 83.3942 120.055 83.4286 120.434V120.469ZM82.6024 120.331C82.4647 120.331 82.3614 120.469 82.3614 120.606L82.4647 121.295L82.6024 122.431L81.6729 122.569L80.7778 122.672C80.6401 122.706 80.5368 122.844 80.5368 122.982C80.5712 123.119 80.6745 123.223 80.8122 123.223H80.8467L81.2942 123.154L82.6368 122.947L83.1188 122.259V122.224L82.9122 120.572V120.537C82.8778 120.434 82.7745 120.331 82.6368 120.331C82.6368 120.331 82.6253 120.331 82.6024 120.331Z" fill="#29234E"/>
<path opacity="0.3" d="M82.602 122.403L83.0151 122.334L83.1184 122.197L83.084 121.99L82.5676 122.093L82.602 122.403Z" fill="#401917"/>
</g>
<path d="M107.102 73.1062L105.699 78.8482L97.1277 113.824C97.1277 113.824 80.4863 112.125 65.7678 125.529H55.4751C40.7566 112.125 24.1152 113.824 24.1152 113.824L15.7641 79.7292L14.1407 73.1062L18.5572 71.3624L17.5513 65.3042C49.744 55.3066 60.6214 79.824 60.6214 79.824C60.6214 79.824 71.4989 55.3066 103.692 65.3042L102.686 71.3624L107.102 73.1062Z" fill="#52B9F9"/>
<g opacity="0.2">
<path d="M104.538 78.8412L95.9666 113.817C95.9666 113.817 79.3252 112.118 64.6067 125.522H54.314C39.5955 112.118 22.9541 113.817 22.9541 113.817L14.603 79.7221C23.3471 79.7989 46.6787 82.0894 54.314 103.788V86.3134C54.314 86.3134 54.8941 108.929 64.1388 114.079L64.6067 99.4961C64.6067 99.4961 72.4244 75.7827 104.538 78.8412Z" fill="#02025C"/>
</g>
<path d="M60.6528 79.8246H55.5065C55.5065 79.8246 44.8676 62.9104 18.5886 71.363L17.9242 67.3739L17.5827 65.3048C40.7131 58.1217 52.8351 68.7518 57.8317 75.3069C59.7873 77.8775 60.6528 79.8246 60.6528 79.8246Z" fill="white"/>
<path d="M103.723 65.3042L102.717 71.3669C76.4376 62.9098 65.7987 79.824 65.7987 79.824H60.6524C60.6524 79.824 71.5299 55.3066 103.723 65.3042Z" fill="white"/>
<g opacity="0.2">
<path d="M60.6526 79.8259H55.5062C55.5062 79.8259 44.8673 62.9117 18.5883 71.3643L17.924 67.3751C19.772 66.9098 41.9714 59.8939 57.7238 75.2043C57.7566 75.2404 57.794 75.2721 57.8314 75.3082C59.787 77.8788 60.6526 79.8259 60.6526 79.8259Z" fill="#02025C"/>
</g>
<g opacity="0.2">
<path d="M60.5604 79.8259H65.7067C65.7067 79.8259 76.3456 62.9117 102.625 71.3643L103.289 67.3751C101.441 66.9098 79.2416 59.8939 63.4891 75.2043C63.4564 75.2404 63.4189 75.2721 63.3815 75.3082C61.4259 77.8788 60.5604 79.8259 60.5604 79.8259Z" fill="#02025C"/>
</g>
<path fill-rule="evenodd" clip-rule="evenodd" d="M65.7721 126.351H55.4795C55.007 126.351 54.628 125.985 54.628 125.529V79.8192C54.628 79.3629 55.007 78.9925 55.4795 78.9925H65.7721C66.24 78.9925 66.6236 79.3629 66.6236 79.8192V125.529C66.6236 125.985 66.24 126.351 65.7721 126.351ZM56.3356 124.702H64.916V80.6414H56.3356V124.702Z" fill="#02025C"/>
<path fill-rule="evenodd" clip-rule="evenodd" d="M65.7707 126.351H55.4781C55.2628 126.351 55.0523 126.27 54.8932 126.125C40.6239 113.128 24.3708 114.623 24.2071 114.641C23.7813 114.686 23.3837 114.415 23.2854 114.013L13.3109 73.2909C13.2126 72.8979 13.4325 72.4913 13.8208 72.3377L17.6104 70.8423L16.7075 65.4301C16.642 65.0281 16.8899 64.6395 17.2923 64.513C24.7638 62.1955 31.7347 61.5269 38.0039 62.5388C43.0473 63.3475 47.6463 65.2359 51.6744 68.1498C56.5588 71.6871 59.3706 75.8208 60.6244 77.9938C61.8735 75.8208 64.6853 71.6871 69.5743 68.1498C73.5978 65.2359 78.1968 63.3475 83.2449 62.5388C89.514 61.5269 96.4803 62.1955 103.957 64.513C104.359 64.6395 104.607 65.0281 104.537 65.4301L103.638 70.8423L107.428 72.3377C107.816 72.4913 108.031 72.8979 107.938 73.2909L97.9634 114.013C97.8651 114.415 97.4675 114.686 97.0417 114.641C96.9996 114.637 92.8966 114.244 87.0812 115.468C81.729 116.588 73.7943 119.353 66.3555 126.125C66.1965 126.27 65.9859 126.351 65.7707 126.351ZM55.8149 124.702H65.4339C73.1066 117.808 81.2705 114.989 86.7912 113.842C91.4369 112.87 94.9832 112.884 96.4663 112.952L106.109 73.5981L102.366 72.1253C101.996 71.9763 101.781 71.6058 101.842 71.2308L102.735 65.8729C90.0006 62.078 79.212 63.2707 70.6597 69.4238C64.152 74.1086 61.4338 80.081 61.4057 80.1442C61.27 80.4469 60.9659 80.6412 60.6244 80.6412C60.6244 80.6412 60.6228 80.6412 60.6197 80.6412C60.2829 80.6412 59.9741 80.4469 59.8384 80.1397C59.8103 80.081 57.0968 74.1086 50.5844 69.4238C42.0368 63.2707 31.2482 62.078 18.5134 65.8729L19.4023 71.2308C19.4678 71.6058 19.2526 71.9763 18.8829 72.1253L15.1402 73.5981L24.7825 112.952C26.2656 112.884 29.8119 112.87 34.4576 113.842C39.9782 114.989 48.1422 117.808 55.8149 124.702Z" fill="#02025C"/>
<defs>
<clipPath id="clip0_323_18795">
<rect width="47.8525" height="147.344" fill="white" transform="translate(99.3511 2.86517)"/>
</clipPath>
<clipPath id="clip1_323_18795">
<rect width="103.279" height="131.508" fill="white" transform="translate(0.204895 0.798004)"/>
</clipPath>
</defs>
</svg>
