<svg width="374" height="107" viewBox="0 0 374 107" fill="none" xmlns="http://www.w3.org/2000/svg">
<g filter="url(#filter0_dd_323_15978)">
<rect x="5.92871" y="45.8566" width="360.397" height="53.0942" rx="11.7987" transform="rotate(-1.36252 5.92871 45.8566)" fill="#64748B"/>
<g clip-path="url(#clip0_323_15978)">
<path d="M98.3989 71.5603C98.3989 75.6366 96.7796 79.546 93.8972 82.4284C91.0148 85.3108 87.1054 86.9302 83.029 86.9302C78.9527 86.9302 75.0433 85.3108 72.1609 82.4284C69.2785 79.546 67.6592 75.6366 67.6592 71.5603C67.6592 71.2206 67.7941 70.8948 68.0343 70.6546C68.2745 70.4144 68.6003 70.2795 68.94 70.2795C69.2797 70.2795 69.6055 70.4144 69.8457 70.6546C70.0859 70.8948 70.2208 71.2206 70.2208 71.5603C70.2208 74.0935 70.972 76.5699 72.3794 78.6762C73.7868 80.7825 75.7872 82.4241 78.1275 83.3935C80.4679 84.363 83.0432 84.6166 85.5278 84.1224C88.0124 83.6282 90.2946 82.4083 92.0858 80.6171C93.8771 78.8258 95.0969 76.5436 95.5912 74.059C96.0854 71.5745 95.8317 68.9992 94.8623 66.6588C93.8929 64.3184 92.2512 62.318 90.1449 60.9106C88.0386 59.5033 85.5623 58.7521 83.029 58.7521C82.6893 58.7521 82.3636 58.6171 82.1234 58.3769C81.8832 58.1367 81.7482 57.8109 81.7482 57.4713C81.7482 57.1316 81.8832 56.8058 82.1234 56.5656C82.3636 56.3254 82.6893 56.1904 83.029 56.1904C87.104 56.1948 91.0109 57.8156 93.8923 60.697C96.7738 63.5785 98.3945 67.4853 98.3989 71.5603ZM80.8222 70.2795L77.9058 70.2795C77.5661 70.2795 77.2403 70.4144 77.0001 70.6546C76.7599 70.8948 76.6249 71.2206 76.6249 71.5603C76.6249 71.9 76.7599 72.2258 77.0001 72.466C77.2403 72.7062 77.5661 72.8411 77.9058 72.8411L80.8222 72.8411C81.0178 73.1808 81.289 73.4709 81.6147 73.689C81.9404 73.9071 82.312 74.0472 82.7006 74.0986C83.0892 74.15 83.4845 74.1113 83.8557 73.9854C84.2269 73.8595 84.5642 73.6498 84.8414 73.3726C85.1186 73.0955 85.3282 72.7582 85.4541 72.387C85.58 72.0157 85.6188 71.6205 85.5674 71.2319C85.516 70.8433 85.3758 70.4717 85.1578 70.146C84.9397 69.8202 84.6496 69.549 84.3099 69.3534L84.3099 65.1562C84.3099 64.8165 84.1749 64.4907 83.9347 64.2505C83.6945 64.0103 83.3687 63.8754 83.029 63.8754C82.6893 63.8754 82.3636 64.0103 82.1234 64.2505C81.8832 64.4907 81.7482 64.8165 81.7482 65.1562L81.7482 69.3534C81.3645 69.5767 81.0454 69.8958 80.8222 70.2795ZM69.9992 67.4412C70.2526 67.4412 70.5002 67.366 70.7108 67.2253C70.9215 67.0846 71.0856 66.8845 71.1826 66.6505C71.2795 66.4165 71.3049 66.1589 71.2555 65.9105C71.206 65.662 71.084 65.4338 70.9049 65.2547C70.7258 65.0755 70.4976 64.9536 70.2491 64.9041C70.0007 64.8547 69.7431 64.8801 69.5091 64.977C69.2751 65.074 69.075 65.2381 68.9343 65.4488C68.7935 65.6594 68.7184 65.907 68.7184 66.1603C68.7184 66.5 68.8534 66.8258 69.0936 67.066C69.3338 67.3062 69.6595 67.4412 69.9992 67.4412ZM73.0655 62.8597C73.3189 62.8597 73.5665 62.7846 73.7771 62.6438C73.9877 62.5031 74.1519 62.303 74.2489 62.069C74.3458 61.835 74.3712 61.5774 74.3217 61.329C74.2723 61.0805 74.1503 60.8523 73.9712 60.6732C73.7921 60.494 73.5639 60.3721 73.3154 60.3226C73.0669 60.2732 72.8094 60.2986 72.5754 60.3955C72.3413 60.4925 72.1413 60.6566 72.0006 60.8673C71.8598 61.0779 71.7847 61.3255 71.7847 61.5788C71.7847 61.9185 71.9197 62.2443 72.1599 62.4845C72.4001 62.7247 72.7258 62.8597 73.0655 62.8597ZM77.6227 59.8292C77.876 59.8292 78.1236 59.7541 78.3343 59.6134C78.5449 59.4726 78.7091 59.2726 78.806 59.0386C78.903 58.8045 78.9283 58.547 78.8789 58.2985C78.8295 58.0501 78.7075 57.8219 78.5284 57.6427C78.3492 57.4636 78.121 57.3416 77.8726 57.2922C77.6241 57.2428 77.3666 57.2682 77.1325 57.3651C76.8985 57.462 76.6985 57.6262 76.5577 57.8368C76.417 58.0475 76.3419 58.2951 76.3419 58.5484C76.3419 58.8881 76.4768 59.2139 76.717 59.4541C76.9572 59.6943 77.283 59.8292 77.6227 59.8292Z" fill="#FCFCFC"/>
</g>
<path d="M137.639 78.451C136.391 78.4807 135.192 78.3218 134.044 77.9743C132.895 77.6112 131.985 77.133 131.315 76.5399L132.138 74.6929C132.776 75.2244 133.583 75.6582 134.559 75.9942C135.535 76.3302 136.546 76.4857 137.592 76.4608C138.544 76.4382 139.314 76.3106 139.902 76.0779C140.49 75.8453 140.92 75.5383 141.192 75.157C141.464 74.7601 141.594 74.3197 141.583 73.8358C141.569 73.2738 141.371 72.8256 140.988 72.4911C140.621 72.1563 140.139 71.8944 139.541 71.7056C138.958 71.5008 138.313 71.3287 137.607 71.1893C136.901 71.0499 136.187 70.8873 135.464 70.7015C134.756 70.4997 134.102 70.2419 133.501 69.9282C132.916 69.6141 132.437 69.1882 132.065 68.6504C131.692 68.097 131.496 67.3833 131.475 66.5091C131.455 65.6662 131.655 64.8884 132.076 64.1755C132.511 63.4467 133.184 62.8607 134.095 62.4173C135.022 61.958 136.203 61.7112 137.639 61.6771C138.591 61.6544 139.538 61.7568 140.481 61.9843C141.423 62.2118 142.243 62.5515 142.941 63.0034L142.213 64.8949C141.5 64.4434 140.75 64.1254 139.965 63.941C139.179 63.7411 138.42 63.6498 137.686 63.6673C136.765 63.6892 136.011 63.8242 135.423 64.0725C134.836 64.3207 134.406 64.6433 134.134 65.0402C133.878 65.4368 133.756 65.877 133.767 66.3609C133.781 66.9385 133.972 67.3947 134.339 67.7295C134.722 68.064 135.204 68.3259 135.787 68.5151C136.385 68.7039 137.037 68.8758 137.743 69.0308C138.449 69.1702 139.156 69.333 139.863 69.5192C140.586 69.705 141.24 69.955 141.826 70.269C142.427 70.5827 142.913 71.0085 143.285 71.5462C143.657 72.084 143.853 72.7822 143.874 73.6407C143.893 74.468 143.686 75.2461 143.25 75.9749C142.814 76.6881 142.125 77.2745 141.183 77.7342C140.257 78.1779 139.075 78.4169 137.639 78.451ZM152.485 78.0511C151.158 78.0826 149.981 77.8373 148.953 77.3151C147.941 76.7926 147.143 76.0619 146.559 75.1231C145.99 74.1839 145.69 73.0977 145.661 71.8646C145.632 70.6314 145.871 69.5325 146.379 68.5677C146.903 67.6025 147.627 66.8434 148.551 66.2904C149.49 65.7214 150.553 65.4228 151.739 65.3946C152.941 65.366 154.009 65.6062 154.942 66.115C155.876 66.6238 156.612 67.356 157.15 68.3115C157.703 69.251 157.995 70.3608 158.025 71.6408C158.028 71.7344 158.022 71.8439 158.01 71.9691C158.013 72.094 158.008 72.2113 157.995 72.3209L147.435 72.5721L147.397 70.9565L156.786 70.7332L155.886 71.3168C155.882 70.5204 155.702 69.814 155.343 69.1978C154.985 68.5816 154.498 68.1091 153.881 67.7801C153.279 67.4352 152.58 67.2722 151.784 67.2912C151.004 67.3097 150.313 67.5058 149.713 67.8793C149.112 68.2371 148.648 68.7402 148.32 69.3883C147.991 70.0209 147.837 70.743 147.856 71.5547L147.865 71.9293C147.884 72.7566 148.089 73.4936 148.48 74.1403C148.885 74.771 149.436 75.2577 150.131 75.6004C150.826 75.943 151.619 76.1038 152.508 76.0826C153.242 76.0652 153.903 75.9245 154.49 75.6607C155.093 75.3964 155.614 75.0092 156.055 74.4989L157.331 75.9211C156.784 76.59 156.094 77.1062 155.259 77.4697C154.44 77.8328 153.515 78.0266 152.485 78.0511ZM165.44 77.7429C164.191 77.7726 163.216 77.4601 162.513 76.8052C161.81 76.1503 161.444 75.1985 161.414 73.9498L161.144 62.5705L163.391 62.517L163.66 73.8026C163.676 74.4738 163.852 74.9851 164.188 75.3363C164.54 75.6871 165.028 75.8551 165.653 75.8403C166.355 75.8236 166.936 75.6145 167.395 75.2132L168.136 76.812C167.799 77.1168 167.391 77.3451 166.91 77.4971C166.445 77.6488 165.955 77.7307 165.44 77.7429ZM159.145 67.1864L159.101 65.3367L167.015 65.1484L167.059 66.9981L159.145 67.1864ZM177.252 77.3214L176.862 60.9316L183.254 60.7795C184.69 60.7454 185.921 60.9426 186.946 61.3711C187.972 61.7996 188.768 62.4367 189.335 63.2822C189.901 64.1277 190.199 65.1436 190.227 66.3299C190.255 67.5163 190.006 68.5452 189.48 69.4167C188.954 70.2726 188.189 70.9389 187.185 71.4158C186.181 71.8926 184.962 72.148 183.525 72.1822L178.421 72.3036L179.449 71.2015L179.593 77.2657L177.252 77.3214ZM188.21 77.0608L183.901 71.2127L186.406 71.1532L190.762 77.0001L188.21 77.0608ZM179.455 71.4356L178.374 70.3134L183.408 70.1937C184.906 70.158 186.03 69.8111 186.78 69.1529C187.545 68.4788 187.913 67.5563 187.886 66.3856C187.858 65.2149 187.446 64.3189 186.65 63.6974C185.87 63.0757 184.731 62.7826 183.232 62.8182L178.198 62.938L179.224 61.7422L179.455 71.4356ZM199.348 76.9364C198.021 76.968 196.844 76.7227 195.816 76.2005C194.804 75.6779 194.006 74.9472 193.422 74.0084C192.853 73.0692 192.553 71.9831 192.524 70.7499C192.495 69.5168 192.734 68.4178 193.242 67.453C193.766 66.4879 194.49 65.7288 195.414 65.1758C196.353 64.6068 197.416 64.3082 198.602 64.28C199.804 64.2514 200.872 64.4915 201.805 65.0003C202.739 65.5091 203.475 66.2413 204.013 67.1968C204.566 68.1364 204.858 69.2462 204.888 70.5261C204.891 70.6198 204.885 70.7292 204.873 70.8545C204.876 70.9794 204.871 71.0966 204.858 71.2063L194.298 71.4574L194.26 69.8418L203.649 69.6185L202.749 70.2022C202.745 69.4057 202.565 68.6994 202.206 68.0832C201.848 67.467 201.361 66.9944 200.744 66.6655C200.142 66.3206 199.443 66.1576 198.647 66.1765C197.867 66.1951 197.176 66.3911 196.576 66.7646C195.975 67.1225 195.511 67.6255 195.183 68.2737C194.854 68.9062 194.7 69.6283 194.719 70.44L194.728 70.8147C194.747 71.642 194.952 72.379 195.343 73.0256C195.748 73.6563 196.299 74.143 196.994 74.4857C197.689 74.8284 198.482 74.9892 199.371 74.968C200.105 74.9505 200.766 74.8099 201.353 74.546C201.956 74.2818 202.477 73.8945 202.918 73.3843L204.194 74.8064C203.647 75.4754 202.957 75.9916 202.122 76.3551C201.303 76.7181 200.378 76.9119 199.348 76.9364ZM223.264 63.6934C224.263 63.6696 225.15 63.8438 225.924 64.2158C226.698 64.5879 227.305 65.1669 227.746 65.953C228.202 66.7387 228.444 67.7403 228.473 68.9578L228.643 76.0991L226.395 76.1526L226.231 69.2688C226.203 68.0669 225.9 67.1682 225.324 66.5728C224.747 65.9774 223.952 65.6918 222.937 65.7159C222.188 65.7337 221.536 65.9054 220.982 66.231C220.427 66.5565 220.001 67.0274 219.703 67.6436C219.421 68.2594 219.291 69.02 219.313 69.9254L219.465 76.3174L217.217 76.3709L217.053 69.4871C217.024 68.2852 216.722 67.3865 216.146 66.7911C215.585 66.1954 214.789 65.9097 213.759 65.9342C213.025 65.9517 212.381 66.1232 211.827 66.4487C211.272 66.7743 210.846 67.2452 210.548 67.8614C210.251 68.4775 210.113 69.2383 210.134 70.1437L210.286 76.5357L208.038 76.5892L207.743 64.1797L209.897 64.1285L209.976 67.4299L209.605 66.5953C209.976 65.7743 210.562 65.1279 211.362 64.6559C212.163 64.1839 213.102 63.9351 214.179 63.9095C215.366 63.8813 216.395 64.1535 217.268 64.7263C218.14 65.2834 218.723 66.152 219.017 67.332L218.095 66.9791C218.446 66.018 219.084 65.2375 220.007 64.6377C220.93 64.0379 222.015 63.7231 223.264 63.6934ZM240.365 75.8203L240.303 73.1979L240.174 72.709L240.067 68.2369C240.045 67.2847 239.746 66.5578 239.172 66.056C238.613 65.5383 237.78 65.2926 236.671 65.319C235.938 65.3364 235.223 65.4784 234.526 65.7448C233.829 65.9957 233.244 66.3298 232.77 66.7471L231.793 65.0836C232.421 64.5533 233.176 64.1448 234.06 63.8583C234.958 63.5558 235.899 63.3929 236.883 63.3695C238.584 63.329 239.905 63.7115 240.846 64.5169C241.786 65.3223 242.277 66.5757 242.317 68.2771L242.496 75.7696L240.365 75.8203ZM236.294 76.0577C235.373 76.0796 234.558 75.9428 233.848 75.6473C233.154 75.3515 232.613 74.9348 232.225 74.3974C231.837 73.8444 231.635 73.2167 231.618 72.5142C231.602 71.843 231.744 71.2305 232.043 70.6768C232.358 70.1227 232.87 69.6732 233.581 69.3283C234.306 68.983 235.286 68.7958 236.519 68.7664L240.453 68.6729L240.491 70.2884L236.651 70.3798C235.527 70.4065 234.775 70.6118 234.393 70.9957C234.012 71.3796 233.828 71.8369 233.84 72.3677C233.855 72.9764 234.108 73.4624 234.601 73.8255C235.094 74.173 235.769 74.3365 236.628 74.3161C237.471 74.2961 238.2 74.0913 238.815 73.7018C239.446 73.312 239.894 72.7547 240.158 72.03L240.639 73.5647C240.36 74.3054 239.851 74.9032 239.112 75.3581C238.373 75.7974 237.434 76.0306 236.294 76.0577ZM246.538 75.6735L246.243 63.264L248.491 63.2105L248.786 75.62L246.538 75.6735ZM247.31 60.849C246.873 60.8594 246.503 60.7276 246.2 60.4537C245.912 60.1794 245.763 59.8394 245.754 59.4335C245.744 59.0121 245.876 58.6575 246.15 58.3699C246.44 58.0818 246.803 57.9326 247.241 57.9222C247.678 57.9118 248.04 58.0438 248.328 58.3181C248.63 58.5764 248.787 58.9085 248.796 59.3143C248.806 59.7358 248.674 60.0981 248.401 60.4014C248.126 60.689 247.763 60.8382 247.31 60.849ZM259.289 62.8365C260.304 62.8124 261.198 62.9864 261.972 63.3584C262.762 63.7301 263.385 64.3088 263.841 65.0944C264.297 65.8801 264.539 66.8817 264.568 68.0993L264.738 75.2406L262.49 75.294L262.326 68.4103C262.298 67.2084 261.98 66.3101 261.372 65.7154C260.78 65.1204 259.953 64.8355 258.892 64.8607C258.096 64.8797 257.405 65.0523 256.819 65.3786C256.233 65.7049 255.784 66.1763 255.471 66.7929C255.173 67.4091 255.035 68.1698 255.056 69.0752L255.208 75.4672L252.961 75.5207L252.665 63.1112L254.82 63.06L254.899 66.4082L254.527 65.5268C254.913 64.7055 255.523 64.0584 256.355 63.5857C257.187 63.113 258.165 62.8633 259.289 62.8365ZM273.912 75.1629C272.71 75.1915 271.626 74.9518 270.662 74.4437C269.712 73.9353 268.953 73.2115 268.384 72.2723C267.815 71.3331 267.516 70.2313 267.486 68.967C267.456 67.7026 267.703 66.5956 268.227 65.6461C268.751 64.6809 269.474 63.9218 270.398 63.3688C271.338 62.8155 272.409 62.5245 273.61 62.4959C274.656 62.471 275.606 62.6827 276.46 63.1309C277.314 63.5792 278.002 64.2656 278.524 65.1903C279.061 66.1146 279.347 67.2792 279.38 68.6841C279.414 70.0889 279.192 71.2656 278.715 72.214C278.253 73.1621 277.606 73.8881 276.775 74.392C275.943 74.8804 274.989 75.1373 273.912 75.1629ZM274.052 73.1917C274.833 73.1731 275.531 72.9769 276.147 72.6031C276.778 72.2288 277.266 71.7096 277.609 71.0455C277.968 70.3654 278.137 69.5883 278.116 68.7141C278.095 67.8244 277.889 67.064 277.499 66.4329C277.125 65.7859 276.613 65.2904 275.965 64.9466C275.332 64.6025 274.625 64.4397 273.845 64.4582C273.048 64.4772 272.343 64.6736 271.727 65.0474C271.111 65.4213 270.623 65.9405 270.264 66.605C269.905 67.2539 269.736 68.0232 269.757 68.913C269.778 69.7871 269.984 70.5553 270.374 71.2176C270.764 71.8643 271.276 72.3597 271.909 72.7039C272.542 73.048 273.256 73.2106 274.052 73.1917ZM278.334 74.9172L278.254 71.569L278.326 68.6857L278.023 65.8113L277.827 57.5462L280.075 57.4927L280.488 74.866L278.334 74.9172ZM290.153 74.7767C288.826 74.8082 287.649 74.5629 286.621 74.0407C285.609 73.5181 284.811 72.7874 284.226 71.8486C283.657 70.9095 283.358 69.8233 283.329 68.5901C283.299 67.357 283.539 66.258 284.047 65.2932C284.571 64.3281 285.294 63.569 286.218 63.016C287.158 62.447 288.22 62.1484 289.407 62.1202C290.609 62.0916 291.676 62.3317 292.61 62.8405C293.543 63.3494 294.279 64.0815 294.817 65.0371C295.371 65.9766 295.663 67.0864 295.693 68.3663C295.695 68.46 295.69 68.5694 295.678 68.6947C295.68 68.8196 295.675 68.9368 295.662 69.0465L285.103 69.2976L285.064 67.6821L294.453 67.4587L293.554 68.0424C293.55 67.2459 293.369 66.5396 293.011 65.9234C292.653 65.3072 292.165 64.8346 291.548 64.5057C290.947 64.1608 290.248 63.9978 289.452 64.0167C288.671 64.0353 287.981 64.2313 287.381 64.6048C286.78 64.9627 286.316 65.4657 285.987 66.1139C285.659 66.7464 285.504 67.4686 285.524 68.2802L285.533 68.6549C285.552 69.4822 285.757 70.2192 286.147 70.8658C286.553 71.4965 287.103 71.9832 287.799 72.3259C288.494 72.6686 289.286 72.8294 290.176 72.8082C290.91 72.7907 291.57 72.6501 292.157 72.3862C292.76 72.122 293.282 71.7348 293.723 71.2245L294.998 72.6466C294.452 73.3156 293.762 73.8318 292.927 74.1953C292.108 74.5584 291.183 74.7522 290.153 74.7767ZM298.843 74.4294L298.548 62.0199L300.702 61.9687L300.782 65.3403L300.552 64.5024C300.875 63.6357 301.436 62.9664 302.237 62.4944C303.038 62.0224 304.032 61.7723 305.218 61.7441L305.27 63.9216C305.176 63.9082 305.082 63.9027 304.989 63.9049C304.91 63.9068 304.832 63.9086 304.754 63.9105C303.552 63.9391 302.609 64.3207 301.923 65.0555C301.238 65.7902 300.912 66.8366 300.944 68.1946L301.091 74.3759L298.843 74.4294Z" fill="white"/>
</g>
<circle cx="327.9" cy="46.4312" r="4.91613" fill="#0A0B0A"/>
<circle cx="42.4259" cy="43.2698" r="4.91613" fill="#0A0B0A"/>
<circle cx="332.239" cy="9.49514" r="4.91613" fill="#0A0B0A"/>
<circle cx="41.4425" cy="4.92428" r="4.91613" fill="#0A0B0A"/>
<g filter="url(#filter1_i_323_15978)">
<rect width="3.71426" height="38.9568" rx="1.85713" transform="matrix(0.998064 0.0621895 -0.111279 0.993789 330.312 8.73764)" fill="white"/>
</g>
<rect x="0.137451" y="0.163676" width="3.40426" height="38.6468" rx="1.70213" transform="matrix(0.998064 0.0621895 -0.111279 0.993789 330.33 8.73011)" stroke="black" stroke-width="0.309998"/>
<g filter="url(#filter2_i_323_15978)">
<rect width="3.71983" height="41.8047" rx="1.85992" transform="matrix(0.999951 -0.00990884 0.0178048 0.999842 39.8828 3.68127)" fill="white"/>
</g>
<rect x="0.157751" y="0.153439" width="3.40983" height="41.4947" rx="1.70492" transform="matrix(0.999951 -0.00990884 0.0178048 0.999842 39.8801 3.68286)" stroke="black" stroke-width="0.309998"/>
<defs>
<filter id="filter0_dd_323_15978" x="0.0293521" y="33.3541" width="373.356" height="73.4476" filterUnits="userSpaceOnUse" color-interpolation-filters="sRGB">
<feFlood flood-opacity="0" result="BackgroundImageFix"/>
<feColorMatrix in="SourceAlpha" type="matrix" values="0 0 0 0 0 0 0 0 0 0 0 0 0 0 0 0 0 0 127 0" result="hardAlpha"/>
<feMorphology radius="1.96645" operator="erode" in="SourceAlpha" result="effect1_dropShadow_323_15978"/>
<feOffset dy="1.96645"/>
<feGaussianBlur stdDeviation="1.96645"/>
<feColorMatrix type="matrix" values="0 0 0 0 0.403922 0 0 0 0 0.835294 0 0 0 0 0.694118 0 0 0 0.2 0"/>
<feBlend mode="normal" in2="BackgroundImageFix" result="effect1_dropShadow_323_15978"/>
<feColorMatrix in="SourceAlpha" type="matrix" values="0 0 0 0 0 0 0 0 0 0 0 0 0 0 0 0 0 0 127 0" result="hardAlpha"/>
<feMorphology radius="1.96645" operator="erode" in="SourceAlpha" result="effect2_dropShadow_323_15978"/>
<feOffset dy="1.96645"/>
<feGaussianBlur stdDeviation="3.93291"/>
<feColorMatrix type="matrix" values="0 0 0 0 0.403922 0 0 0 0 0.835294 0 0 0 0 0.694118 0 0 0 0.2 0"/>
<feBlend mode="normal" in2="effect1_dropShadow_323_15978" result="effect2_dropShadow_323_15978"/>
<feBlend mode="normal" in="SourceGraphic" in2="effect2_dropShadow_323_15978" result="shape"/>
</filter>
<filter id="filter1_i_323_15978" x="326.172" y="8.84946" width="7.65137" height="41.2022" filterUnits="userSpaceOnUse" color-interpolation-filters="sRGB">
<feFlood flood-opacity="0" result="BackgroundImageFix"/>
<feBlend mode="normal" in="SourceGraphic" in2="BackgroundImageFix" result="shape"/>
<feColorMatrix in="SourceAlpha" type="matrix" values="0 0 0 0 0 0 0 0 0 0 0 0 0 0 0 0 0 0 127 0" result="hardAlpha"/>
<feOffset dy="2.47999"/>
<feGaussianBlur stdDeviation="1.23999"/>
<feComposite in2="hardAlpha" operator="arithmetic" k2="-1" k3="1"/>
<feColorMatrix type="matrix" values="0 0 0 0 0 0 0 0 0 0 0 0 0 0 0 0 0 0 0.25 0"/>
<feBlend mode="normal" in2="shape" result="effect1_innerShadow_323_15978"/>
</filter>
<filter id="filter2_i_323_15978" x="39.916" y="3.66275" width="4.39844" height="44.2783" filterUnits="userSpaceOnUse" color-interpolation-filters="sRGB">
<feFlood flood-opacity="0" result="BackgroundImageFix"/>
<feBlend mode="normal" in="SourceGraphic" in2="BackgroundImageFix" result="shape"/>
<feColorMatrix in="SourceAlpha" type="matrix" values="0 0 0 0 0 0 0 0 0 0 0 0 0 0 0 0 0 0 127 0" result="hardAlpha"/>
<feOffset dy="2.47999"/>
<feGaussianBlur stdDeviation="1.23999"/>
<feComposite in2="hardAlpha" operator="arithmetic" k2="-1" k3="1"/>
<feColorMatrix type="matrix" values="0 0 0 0 0 0 0 0 0 0 0 0 0 0 0 0 0 0 0.25 0"/>
<feBlend mode="normal" in2="shape" result="effect1_innerShadow_323_15978"/>
</filter>
<clipPath id="clip0_323_15978">
<rect width="30.7397" height="30.7397" fill="white" transform="translate(67.6592 56.1904)"/>
</clipPath>
</defs>
</svg>
