<svg width="196" height="193" viewBox="0 0 196 193" fill="none" xmlns="http://www.w3.org/2000/svg">
<path d="M34.5766 75.3687C34.5766 75.3687 39.5718 100.298 65.2945 101.652L63.9406 112.622C63.9406 112.622 31.1687 112.669 22.5322 78.4498L34.5766 75.3687Z" fill="#5C7E1C"/>
<path d="M65.2943 101.652L63.9405 112.623C63.8938 112.623 56.191 112.576 47.2744 108.701C52.9231 106.927 53.0632 101.419 52.7364 98.6177C56.2377 100.298 60.3925 101.419 65.2943 101.652Z" fill="#29234E"/>
<path d="M25.6118 86.0567C30.3269 86.1968 34.8552 84.3761 37.983 80.8748C40.2238 78.3539 42.2779 74.4792 42.2312 68.8304C42.2312 68.8304 42.2312 66.2628 43.3516 62.5281C44.2386 59.5404 42.2312 56.4593 39.1501 56.2258C39.0878 56.1947 39.0412 56.1792 39.01 56.1792C37.0493 56.0858 35.2753 57.2529 34.435 58.9802C33.548 60.8009 32.3809 63.6486 31.5406 67.0098C31.5406 67.0098 28.0861 60.2407 16.5552 56.3659C16.5552 56.3659 12.0736 54.732 9.31923 57.2529C8.61897 57.8598 8.15212 58.6534 7.96539 59.5871C7.68529 60.7542 7.77865 62.5281 9.83274 63.9287C9.83274 63.9287 5.53783 62.9016 2.73681 64.8623C1.19625 65.9361 0.402629 67.9434 0.869466 69.7641C1.3363 71.7715 3.25035 74.2457 9.78606 74.8993C9.78606 74.8993 7.54524 75.2261 6.09804 77.1868C4.83758 78.9141 5.58453 81.1082 7.35851 82.1353C10.533 83.9559 13.8942 83.6759 17.4422 83.6759C17.4422 83.6759 20.6167 85.87 25.6118 86.0567Z" fill="#5C7E1C"/>
<path d="M18.4699 76.0689C18.4699 76.0689 14.035 75.1353 10.3937 75.9289C9.08653 76.209 7.82607 76.7692 7.12582 77.8896C6.37888 79.1034 6.14545 80.8774 8.89979 82.8381C8.37071 82.6513 7.85719 82.4179 7.35924 82.1378C5.58526 81.1108 4.83831 78.9167 6.09877 77.1894C7.54596 75.2286 9.78679 74.9018 9.78679 74.9018C9.41332 74.8707 9.03984 74.824 8.66637 74.7618C9.69341 74.7151 14.2217 74.4817 18.4699 76.0689Z" fill="#004331"/>
<path d="M43.3516 62.5281C43.445 61.3611 43.1649 60.4274 42.7447 59.7271C41.9044 58.1399 40.1304 57.3463 38.4031 57.8131C38.3098 57.8131 38.2164 57.8442 38.1231 57.9065C37.1894 58.1866 36.3958 58.8868 35.8355 59.6805C32.381 64.7223 31.6807 72.4718 31.6807 72.4718C26.6389 72.5185 24.2113 76.0197 24.2113 76.0197C24.2113 76.0197 25.285 71.6782 30.1868 71.0713L30.8871 67.8034C30.8871 67.8034 25.3784 59.1669 14.5478 57.3929C13.5674 57.2062 12.5404 57.2529 11.6067 57.5797C10.0195 58.0932 8.19882 59.4937 9.17918 63.0884C9.17918 63.0884 16.0417 65.0958 22.344 69.2506C21.8771 69.0639 14.221 65.5626 8.89906 65.0024C8.89906 65.0024 6.1914 64.7223 4.13732 65.796C2.12993 66.8697 1.61643 69.5307 2.87689 71.398C3.67051 72.5651 5.11768 73.8723 7.87202 74.6192C2.87686 73.7322 1.28962 71.5381 0.869466 69.7641C0.402629 67.9434 1.19625 65.9827 2.73681 64.8623C5.53783 62.9016 9.83274 63.9287 9.83274 63.9287C7.77865 62.5281 7.68529 60.7542 7.96539 59.5871C8.15212 58.6534 8.61897 57.8598 9.31923 57.2529C12.0736 54.732 16.5552 56.3659 16.5552 56.3659C28.0861 60.2407 31.5406 67.0098 31.5406 67.0098C32.3809 63.6486 33.548 60.8009 34.435 58.9802C35.2753 57.2529 37.0493 56.0858 39.01 56.1792C39.0412 56.2103 39.0878 56.2258 39.1501 56.2258C41.7177 56.4126 43.5384 58.6534 43.5384 61.081L43.3516 62.5281Z" fill="#004331"/>
<path d="M30.6543 71.5405C30.6543 71.5405 26.5461 71.2603 24.2119 76.0221C24.2119 76.0221 24.9589 71.4471 30.0474 70.7935L31.0744 65.7983C31.4946 66.1718 31.6346 66.3585 31.6813 66.4986L31.5413 67.0121C31.5413 67.0121 31.0278 69.4397 30.6543 71.5405Z" fill="#29234E"/>
<path d="M22.344 69.2511C16.6486 65.9833 9.83275 63.9292 9.83275 63.9292C9.03913 63.6958 8.66565 63.4624 8.33887 62.8555C16.9287 64.7228 22.0639 68.971 22.344 69.2511Z" fill="#29234E"/>
<path d="M9.78683 74.9017C9.78683 74.9017 14.3151 74.7149 18.47 76.0688C18.47 76.0688 12.261 72.8476 7.63936 74.855C7.63936 74.855 7.49933 74.7149 9.78683 74.9017Z" fill="#29234E"/>
<path d="M25.0049 86.0124C25.0049 86.0124 29.5332 86.4793 33.1745 84.5186C33.1745 84.5186 29.9534 87.3662 25.0049 86.666V86.0124Z" fill="#29234E"/>
<path d="M161.976 70.6997C161.976 70.6997 157.448 93.2012 134.199 94.4617L135.366 103.705C135.366 103.705 164.637 104.732 172.853 73.5007L161.976 70.6997Z" fill="#648D12"/>
<path d="M153.993 98.8503C144.47 104.032 135.366 103.705 135.366 103.705L134.199 94.462C141.809 94.0418 147.411 91.3342 151.519 87.9263C150.819 90.1671 149.932 95.2089 153.993 98.8503Z" fill="#29234E"/>
<path d="M169.958 81.6248C169.958 81.6248 165.897 81.4381 162.209 78.1235C162.209 78.1235 164.076 81.9516 169.958 82.2317V81.6248Z" fill="#29234E"/>
<path d="M172.386 81.7667C168.044 81.9067 163.89 80.2261 161.042 76.9583C159.035 74.6708 157.167 71.1228 157.214 65.9409C157.214 65.9409 157.261 63.5601 156.234 60.1522C155.44 57.4445 157.261 54.5968 160.108 54.3634C160.139 54.3634 160.186 54.3634 160.248 54.3634C162.022 54.27 163.656 55.3437 164.403 56.931C165.197 58.6116 166.271 61.2259 167.017 64.307C167.017 64.307 170.192 58.1448 180.836 54.5968C180.836 54.5968 184.944 53.1029 187.418 55.4371C188.072 55.9973 188.492 56.7443 188.679 57.5846C188.912 58.6583 188.865 60.2922 186.951 61.5993C186.951 61.5993 190.873 60.6657 193.44 62.4863C194.841 63.4667 195.541 65.2874 195.168 66.968C194.701 68.7886 192.927 71.0761 186.905 71.6363C186.905 71.6363 189.005 71.9631 190.313 73.7371C191.48 75.3243 190.779 77.3317 189.146 78.2654C186.251 79.8993 183.123 79.6659 179.902 79.6193C179.902 79.6193 176.961 81.6733 172.386 81.7667Z" fill="#648D12"/>
<path d="M178.969 72.6609C178.969 72.6609 183.077 71.8206 186.391 72.5676C187.559 72.801 188.726 73.3145 189.333 74.3416C190.033 75.5087 190.22 77.1426 187.699 78.9166C188.197 78.761 188.679 78.5431 189.146 78.263C190.78 77.3293 191.48 75.3219 190.313 73.7347C189.006 71.9607 186.905 71.6339 186.905 71.6339C187.278 71.6028 187.636 71.5561 187.979 71.4939C187.045 71.4472 182.89 71.2138 178.969 72.6609Z" fill="#648D12"/>
<path d="M156.234 60.1522C156.14 59.1251 156.42 58.2381 156.794 57.5846C157.587 56.1374 159.175 55.4371 160.762 55.8573C160.855 55.8573 160.949 55.8728 161.042 55.904C161.882 56.1841 162.629 56.8376 163.143 57.5846C166.271 62.2062 166.877 69.3021 166.877 69.3021C171.499 69.3488 173.74 72.6167 173.74 72.6167C173.74 72.6167 172.76 68.6019 168.231 68.0417L167.624 65.0539C167.624 65.0539 172.713 57.1644 182.657 55.5305C183.544 55.3904 184.477 55.4371 185.318 55.7639C186.811 56.2307 188.445 57.4912 187.558 60.8057C187.558 60.8057 181.256 62.6264 175.467 66.4078C175.887 66.2211 182.937 63.0466 187.792 62.5797C187.792 62.5797 190.313 62.3463 192.18 63.3266C194.001 64.2603 194.468 66.7346 193.3 68.4619C192.553 69.5356 191.2 70.7027 188.725 71.4029C193.3 70.6093 194.748 68.6019 195.168 66.968C195.541 65.2874 194.841 63.4667 193.44 62.4397C190.873 60.6657 186.951 61.5993 186.951 61.5993C188.866 60.2922 188.912 58.6583 188.679 57.5846C188.492 56.7443 188.072 55.9973 187.418 55.4371C184.944 53.1029 180.836 54.5968 180.836 54.5968C170.192 58.1448 167.018 64.307 167.018 64.307C166.271 61.2259 165.197 58.6116 164.403 56.931C163.656 55.3437 162.022 54.27 160.248 54.3634C160.186 54.3634 160.139 54.3634 160.108 54.3634C157.727 54.5501 156.047 56.6042 156.047 58.845L156.234 60.1522Z" fill="#648D12"/>
<path d="M167.811 68.4588C167.811 68.4588 171.592 68.2254 173.74 72.6137C173.74 72.6137 173.039 68.4122 168.418 67.7586L167.484 63.1836C167.111 63.5571 166.971 63.7438 166.924 63.8372L167.017 64.304C167.017 64.304 167.484 66.5448 167.811 68.4588Z" fill="#29234E"/>
<path d="M175.421 66.4055C180.649 63.4644 186.952 61.597 186.952 61.597C187.652 61.3169 188.025 61.1302 188.306 60.6167C180.463 62.2506 175.701 66.1721 175.421 66.4055Z" fill="#29234E"/>
<path d="M186.905 71.6348C186.905 71.6348 182.797 71.4481 178.969 72.6619C178.969 72.6619 184.711 69.7675 188.912 71.5881C188.912 71.5881 189.006 71.4481 186.905 71.6348Z" fill="#29234E"/>
<path d="M103.621 127.466C103.621 127.466 102.127 132.041 100.493 139.838V139.884C98.6255 148.988 96.6648 162.526 96.8982 178.445H84.6204C84.4803 170.182 84.8071 156.41 87.7015 141.518C88.7752 136.243 90.129 130.828 91.8563 125.459L103.621 127.466Z" fill="#648D12"/>
<path d="M103.62 127.466C103.62 127.466 102.126 132.041 100.493 139.838V139.884C91.7627 136.476 87.7012 141.565 87.7012 141.565V141.518C88.7749 136.243 90.0821 130.828 91.856 125.459L103.62 127.466Z" fill="#29234E"/>
<path d="M96.8984 178.443H84.6206C84.5272 174.148 84.5739 168.406 85.0407 161.777C92.3234 163.271 97.1785 158.322 97.832 157.622C97.1785 163.878 96.7583 170.88 96.8984 178.443Z" fill="#5C7E1C"/>
<path d="M128.504 146.093L128.598 146.281C128.598 146.218 128.566 146.156 128.504 146.093Z" fill="#5C7E1C"/>
<path d="M147.598 160.379L137.468 165.748C126.544 137.037 111.932 121.585 111.932 121.585L122.669 117.15C134.013 129.661 142.743 148.381 147.598 160.379Z" fill="#648D12"/>
<path d="M147.597 160.379L137.466 165.748C134.852 158.885 132.051 152.77 129.25 147.495C129.25 147.495 135.039 151.836 141.901 147.495C144.142 152.21 146.056 156.645 147.597 160.379Z" fill="#5C7E1C"/>
<path d="M132.659 130.548C122.996 128.587 120.988 133.489 120.988 133.489C115.76 125.646 111.932 121.632 111.932 121.632L122.669 117.15C126.264 121.118 129.625 125.74 132.659 130.548Z" fill="#29234E"/>
<path d="M145.404 114.022C145.404 114.022 160.529 73.127 120.942 55.4339C99.8873 46.0038 74.8649 52.4461 61.8401 71.4931C61.4978 71.991 61.171 72.489 60.8598 72.9869C51.4297 87.879 51.5697 107.113 61.56 121.678C61.809 122.02 62.058 122.378 62.307 122.752C62.307 122.752 59.2725 123.405 57.6853 126.346C55.3978 130.548 58.0587 135.683 62.7271 136.71C65.7149 137.364 69.9631 136.99 75.7519 133.769C75.7519 133.769 89.1501 141.005 100.868 134.189C104.742 131.948 108.851 130.268 113.192 129.381C117.394 128.54 122.809 127.84 128.458 128.027C131.866 128.12 135.18 128.774 138.448 129.754C140.876 130.501 144.797 131.155 148.718 129.474C151.753 128.214 153.667 125.179 153.247 121.911C152.92 119.064 151.146 115.702 145.404 114.022Z" fill="#648D12"/>
<path d="M55.9564 83.8213C55.9564 83.8213 54.3692 88.0695 51.148 89.5634C50.121 90.0302 49.3274 90.9172 49.0006 91.9909C49.0006 91.9909 49.0006 92.0065 49.0006 92.0376C48.5337 93.8583 50.1677 95.5389 51.9883 95.2121C53.1087 94.9787 54.4626 94.1851 55.6297 92.0376L55.9564 83.8213Z" fill="#648D12"/>
<path d="M127.242 58.7026C127.242 58.7493 127.569 58.8894 127.616 58.9361C127.958 59.1228 128.316 59.3095 128.689 59.4962C129.81 60.0564 131.024 60.5233 132.237 60.8034C133.218 61.0368 134.198 61.1769 135.225 61.1769C136.252 61.1302 137.279 60.71 138.353 60.7567C139.193 60.8034 140.08 61.0835 140.78 61.6437C142.554 62.9975 142.228 65.7519 140.267 66.8256C139.52 67.199 138.586 67.5259 137.373 67.5725C134.385 67.6659 131.537 66.3121 129.67 63.9779C128.643 62.7174 127.662 60.9901 127.242 58.7026Z" fill="#648D12"/>
<path d="M62.7271 136.708C65.7149 137.362 69.9164 136.988 75.7519 133.767C75.7519 133.767 88.3098 140.536 99.7473 134.794C77.6659 133.067 66.2751 115.281 64.0343 96.6537C62.1202 80.4545 67.7689 64.3953 79.5332 56.1323C72.5774 59.5402 66.4618 64.7221 61.8401 71.4912C61.4978 71.9581 61.171 72.456 60.8598 72.9851C51.4297 87.8772 51.5697 107.111 61.56 121.676C61.809 122.019 62.058 122.376 62.307 122.75C62.307 122.75 59.2725 123.403 57.6853 126.345C55.3978 130.546 58.0587 135.681 62.7271 136.708Z" fill="#5C7E1C"/>
<path d="M55.9564 83.8213C55.9564 83.8213 54.3692 88.0695 51.148 89.5634C50.121 90.0302 49.3274 90.9172 49.0006 91.9909C49.0006 91.9909 49.0006 92.0065 49.0006 92.0376C48.5337 93.8583 50.1677 95.5389 51.9883 95.2121C53.1087 94.9787 54.4626 94.1851 55.6297 92.0376L55.9564 83.8213Z" fill="#5C7E1C"/>
<path d="M133.451 66.8237C152.685 86.8043 143.535 115.655 143.535 115.655C145.122 115.982 146.429 116.542 147.41 117.149C149.464 118.409 150.864 120.557 151.004 122.938C151.424 128.026 145.776 130.033 144.188 130.5C145.636 130.407 147.176 130.127 148.717 129.473C151.751 128.213 153.665 125.178 153.245 121.91C152.918 119.063 151.144 115.702 145.402 114.021C145.402 114.021 155.346 87.0845 137.979 67.4773C137.793 67.5084 137.59 67.524 137.373 67.524C136.019 67.6174 134.665 67.3373 133.451 66.8237Z" fill="#648D12"/>
<path d="M60.859 72.9869C61.1703 72.4579 61.4971 71.9599 61.8394 71.4931C74.8641 52.4461 99.8866 46.0038 120.941 55.4339C123.213 56.4609 125.314 57.5502 127.243 58.7017L127.57 58.8885C127.601 58.9196 127.617 58.9352 127.617 58.9352C127.959 59.1219 128.317 59.3086 128.69 59.4953C129.811 60.0555 131.025 60.5224 132.238 60.8025C133.219 61.0359 134.199 61.176 135.226 61.176C136.253 61.1293 137.28 60.7091 138.354 60.7558C139.194 60.8025 140.081 61.0826 140.781 61.6428C142.135 62.6698 142.275 64.5372 141.388 65.8443C141.342 64.7706 140.922 63.7902 139.895 63.23C138.587 62.5298 137.14 62.9033 135.693 63.0433C134.946 63.1367 134.199 63.1367 133.452 63.1367C133.421 63.1367 133.405 63.1367 133.405 63.1367C133.063 63.1056 132.721 63.09 132.378 63.09C132.347 63.0589 132.332 63.0433 132.332 63.0433C130.231 62.9033 128.177 62.203 126.403 61.0359C125.096 60.1956 123.742 59.4487 120.754 58.1882C113.238 55.0137 100.353 51.6058 85.508 56.1341C85.508 56.1341 62.2596 62.5765 55.5371 84.8913C56.7042 80.7364 58.4782 76.7216 60.859 72.9869Z" fill="#648D12"/>
<path d="M130.417 111.456C130.417 111.456 132.985 113.183 133.545 115.377C134.012 117.291 131.584 118.645 130.23 117.198C129.95 116.871 129.624 116.637 129.203 115.704C129.203 115.704 129.904 117.571 129.717 118.785C129.484 120.325 127.803 120.839 126.776 119.532C126.589 119.298 126.076 118.458 126.076 117.478C126.076 117.478 125.749 119.345 126.869 120.372C127.943 121.399 129.67 120.886 130.277 119.532C130.417 119.205 130.511 118.785 130.557 118.318C130.557 118.318 130.884 118.551 131.444 118.598C132.985 118.832 134.339 117.524 134.199 115.984C134.105 114.63 133.312 112.903 130.417 111.456Z" fill="#29234E"/>
<path d="M67.7665 109.914C67.7665 109.914 65.9926 113.135 66.7862 115.236C67.4864 117.103 70.0073 117.15 70.8943 115.376C71.2211 114.676 71.4079 113.649 71.2211 112.248C71.2211 112.248 71.828 114.069 71.3612 115.656C70.7076 118.037 67.3464 118.224 66.366 115.936C65.8525 114.722 65.8992 112.855 67.7665 109.914Z" fill="#29234E"/>
<path d="M104.694 62.5308C104.694 62.5308 107.869 64.3514 108.289 66.5922C108.662 68.553 106.515 69.8601 104.834 68.7864C104.181 68.3662 103.527 67.6193 102.967 66.3122C102.967 66.3122 103.387 68.1795 104.601 69.2999C106.375 71.0272 109.362 69.4399 109.036 66.9657C108.849 65.6586 107.822 64.0713 104.694 62.5308Z" fill="#29234E"/>
<path d="M53.9961 94.1349C53.9961 94.1349 55.3499 93.1546 55.9101 91.1938C55.9101 91.1938 56.2836 94.0882 53.7627 95.3487L53.9961 94.1349Z" fill="#29234E"/>
<path d="M137.979 67.478C137.979 67.478 134.898 68.0382 131.91 66.0308C131.91 66.0308 133.731 69.2986 138.866 68.1315L137.979 67.478Z" fill="#29234E"/>
<path d="M106.002 96.2365C106.002 96.2365 104.461 90.6345 100.493 87.1799C96.1514 83.3985 89.3356 85.0324 86.908 90.3077C85.7409 92.7352 85.0406 96.1431 85.6009 100.812L81.2593 101.652C81.2593 101.652 80.1389 94.6026 83.7802 88.6271C88.4486 80.9243 99.606 80.971 103.854 88.9072C104.881 90.8212 105.628 93.2021 106.002 96.2365Z" fill="#29234E"/>
<path d="M125.562 93.6697C125.562 93.6697 125.189 90.6819 126.122 87.7875C127.803 82.6523 134.525 81.7186 137.7 86.1069C138.634 87.3674 139.381 89.1413 139.661 91.5689L143.395 89.6082C143.395 89.6082 142.088 84.7998 138.073 82.0921C132.938 78.6375 125.796 81.6253 125.049 87.7875C124.862 89.3748 125.002 91.3355 125.562 93.6697Z" fill="#29234E"/>
<path d="M112.212 97.1262C111.978 99.1802 113.705 101.094 116.04 101.374C118.42 101.654 120.521 100.207 120.755 98.1065C120.988 96.0057 119.307 94.0917 116.927 93.8116C114.592 93.5315 112.445 95.0254 112.212 97.1262Z" fill="#29234E"/>
<path d="M112.538 98.0125C112.305 99.8798 113.892 101.56 116.086 101.841C118.281 102.074 120.241 100.767 120.475 98.9462C120.708 97.0788 119.074 95.3982 116.88 95.1181C114.686 94.8847 112.725 96.1451 112.538 98.0125Z" fill="#648D12"/>
<path d="M121.081 106.694C115.526 112.11 105.769 108.935 105.769 108.935L105.349 110.522C118.14 114.304 122.015 107.581 122.015 107.581L121.081 106.694Z" fill="#29234E"/>
<path d="M106.516 104.5C106.516 104.5 106.843 110.756 102.128 112.623C102.128 112.623 109.224 112.343 106.516 104.5Z" fill="#29234E"/>
<path d="M120.52 104.032C120.52 104.032 120.427 107.533 124.395 108.42C124.395 108.42 119.54 109.54 120.52 104.032Z" fill="#29234E"/>
<path d="M79.9054 89.9814C79.9054 89.9814 82.473 78.5906 95.0309 79.5242C95.0309 79.5242 92.8835 78.4038 89.849 78.4038C85.1807 78.4038 81.2592 81.765 80.2322 86.2934C79.9988 87.3671 79.8587 88.6276 79.9054 89.9814Z" fill="#29234E"/>
<path d="M140.735 81.2997C140.735 81.2997 135.833 75.8377 128.971 78.8721C128.971 78.8721 129.811 77.565 131.865 76.9114C134.713 76.0244 137.841 77.0048 139.661 79.3856C140.081 79.8992 140.455 80.5527 140.735 81.2997Z" fill="#29234E"/>
<path fill-rule="evenodd" clip-rule="evenodd" d="M121.221 54.783C123.415 55.7633 125.516 56.8371 127.616 58.0975H127.663C127.725 58.1598 127.803 58.2065 127.896 58.2376L128.036 58.3309C128.41 58.5643 128.737 58.7044 129.017 58.8445C130.137 59.4047 131.304 59.8248 132.425 60.1049C133.312 60.3383 134.152 60.4317 134.899 60.4317C134.992 60.4317 135.086 60.4317 135.179 60.4317C135.599 60.4317 136.019 60.3383 136.486 60.245C137 60.1516 137.56 60.0116 138.167 60.0116C138.229 60.0116 138.291 60.0116 138.354 60.0116C139.427 60.0582 140.454 60.4317 141.248 61.0386C142.228 61.8322 142.789 63.0927 142.648 64.3531C142.555 65.6603 141.762 66.8274 140.594 67.4342C140.221 67.6521 139.801 67.8233 139.334 67.9478C144.329 73.9233 147.41 81.0659 148.484 89.2355C154.273 85.4541 157.587 80.0855 159.408 76.0241C157.447 73.1763 156.467 69.8151 156.467 65.9404C156.467 65.9404 156.514 63.6062 155.533 60.3383C155.066 58.7978 155.346 57.1638 156.233 55.8567C157.12 54.5962 158.474 53.8026 160.015 53.6626C160.077 53.6626 160.124 53.6626 160.155 53.6626C160.186 53.6626 160.202 53.6626 160.202 53.6626C160.295 53.6314 160.388 53.6159 160.482 53.6159C162.396 53.6159 164.216 54.8297 165.057 56.6503C165.71 58.0042 166.597 60.1049 167.297 62.5792C168.931 60.4784 172.806 56.5103 180.556 53.896C180.649 53.896 182.003 53.3825 183.683 53.3825C185.411 53.3825 186.858 53.896 187.932 54.923C188.679 55.5766 189.192 56.4636 189.379 57.444C189.659 58.611 189.472 59.6848 188.912 60.6184C189.036 60.6184 189.161 60.6184 189.285 60.6184C191.153 60.6184 192.693 61.0386 193.86 61.8789C195.541 63.046 196.335 65.1468 195.868 67.1075C195.448 68.8815 193.954 71.0289 189.519 71.9626C189.986 72.336 190.453 72.7562 190.873 73.3164C191.526 74.2034 191.76 75.2304 191.526 76.2108C191.293 77.3312 190.546 78.3115 189.519 78.8717C187.091 80.2723 184.524 80.3656 182.376 80.3656C181.909 80.3656 181.443 80.3656 180.976 80.3656C180.696 80.3656 180.4 80.3656 180.089 80.3656C179.342 80.8325 176.494 82.373 172.386 82.5131C172.293 82.5131 172.184 82.5131 172.059 82.5131C171.499 82.5131 170.939 82.482 170.379 82.4197C164.683 94.184 155.533 99.5526 148.671 102.027C148.11 107.676 146.85 111.924 146.336 113.558C152.032 115.472 153.666 119.066 153.993 121.821C154.413 125.369 152.405 128.683 148.997 130.13C147.27 130.877 145.403 131.251 143.395 131.251C141.715 131.251 139.941 130.971 138.214 130.457C136.299 129.897 134.432 129.477 132.611 129.15C139.521 139.934 144.936 151.885 148.251 160.148L148.531 160.755L147.924 161.035L137.793 166.404L137.046 166.777L136.766 165.983C130.371 149.084 122.668 136.806 117.253 129.43C115.992 129.617 114.685 129.85 113.331 130.084C109.783 130.831 106.142 132.138 102.547 134.099C102.08 135.919 101.66 137.88 101.24 139.934L101.193 140.027C99.4661 148.664 97.412 162.342 97.5987 178.448V179.148H83.8738V178.448C83.7337 169.625 84.1538 155.993 87.0015 141.381C87.1883 140.307 87.4684 139.14 87.7485 137.787C81.8197 137.413 77.0579 135.266 75.7508 134.612C71.9694 136.666 68.4214 137.693 65.2936 137.693C64.36 137.693 63.4574 137.6 62.586 137.413C60.0184 136.853 57.8709 135.126 56.8439 132.791C55.8169 130.597 55.9102 128.076 57.0306 125.976C58.1977 123.875 60.0184 122.848 61.1388 122.381C61.0766 122.288 61.0143 122.194 60.9521 122.101C58.8513 119.02 57.1707 115.752 55.9102 112.251C47.2737 110.337 32.1949 104.501 24.5388 86.7146C20.6174 86.3412 17.9564 84.8473 17.2095 84.3804C11.7008 84.3804 8.47961 83.4468 8.43293 83.4468H8.38625C8.32401 83.4156 8.26175 83.3845 8.19951 83.3534L8.10614 83.3067C7.73267 83.1511 7.39034 82.9799 7.07912 82.7932C7.048 82.7932 7.01687 82.7776 6.98574 82.7465C5.3985 81.8128 4.5115 80.0855 4.79161 78.4516C4.88497 77.8603 5.13394 77.3001 5.53853 76.771C5.81864 76.3664 6.16099 75.9929 6.56558 75.6506C6.78344 75.495 6.98573 75.3549 7.17246 75.2304C2.22399 74.2034 0.590076 71.8225 0.123239 69.9085C-0.343597 67.8077 0.543398 65.5669 2.31738 64.2598C3.57784 63.3728 5.25845 62.9526 7.21916 62.9526C7.43702 62.9526 7.63931 62.9526 7.82605 62.9526C7.17247 61.9256 6.93905 60.7118 7.26584 59.4047C7.49925 58.3776 8.05945 57.3973 8.80639 56.697C9.97348 55.6233 11.5141 55.1098 13.3814 55.1098C15.2488 55.1098 16.7426 55.67 16.7893 55.67C25.3791 58.5644 29.5806 62.9993 31.2613 65.2868C32.0549 62.5325 33.0352 60.1983 33.7822 58.7044C34.7158 56.7437 36.6299 55.4832 38.7306 55.4832C38.824 55.4832 38.9329 55.4832 39.0574 55.4832H39.1041H39.1508H39.1975C40.8781 55.6233 42.3253 56.5103 43.3056 57.8641C44.2393 59.3113 44.5194 61.0853 44.0526 62.7192C42.9788 66.3138 42.9788 68.8348 42.9788 68.8348C42.9788 73.8299 41.485 78.0315 38.5439 81.346C38.2949 81.6261 38.0304 81.8906 37.7503 82.1396C40.2712 87.4615 44.8929 94.2307 53.2026 98.0588C53.1715 97.2184 53.1715 96.3781 53.2026 95.5378C52.8602 95.7246 52.5023 95.849 52.1289 95.9113C51.911 95.9735 51.7087 96.0047 51.5219 96.0047C50.4949 96.0047 49.5146 95.4911 48.861 94.6975C48.2541 93.9039 48.0674 92.8769 48.3008 91.8965V91.7565C48.6743 90.5427 49.5612 89.5156 50.8217 88.9087C53.2026 87.835 54.6498 84.9873 55.0232 84.1003C56.237 79.9922 58.011 76.1641 60.2518 72.6161C60.5786 72.0559 60.9054 71.5424 61.2322 71.0756C70.1021 58.1442 84.9008 50.4414 100.867 50.4414C107.916 50.4414 114.778 51.8886 121.221 54.783ZM61.8391 71.4957C61.4967 71.9626 61.1699 72.4605 60.8587 72.9896C58.5712 76.5843 56.8906 80.4123 55.7235 84.3337C55.21 85.5475 53.6694 88.3952 51.1485 89.5623C50.1214 90.0758 49.3278 90.9161 49.001 91.9899C49.001 91.9899 49.001 92.0054 49.001 92.0365C48.5809 93.6705 49.888 95.2577 51.5219 95.2577C51.6776 95.2577 51.8332 95.2421 51.9888 95.211C52.5957 95.071 53.2959 94.7909 53.9962 94.184C53.9028 95.8335 53.9028 97.4985 53.9962 99.1791C44.4727 95.2577 39.4309 87.5549 36.8633 81.9996C37.2679 81.6261 37.6413 81.2526 37.9837 80.8792C40.2245 78.3582 42.2786 74.4835 42.2319 68.8348C42.2319 68.8348 42.2319 66.2672 43.3523 62.5325C44.2393 59.5914 42.2319 56.4636 39.1508 56.2302C39.0885 56.2302 39.0419 56.2146 39.0107 56.1835C38.9174 56.1835 38.824 56.1835 38.7306 56.1835C36.91 56.1835 35.2294 57.3039 34.4357 58.9845C33.5487 60.8052 32.3816 63.6529 31.5413 67.0141C31.5413 67.0141 28.0868 60.245 16.5559 56.3702C16.5559 56.3702 15.1087 55.81 13.3814 55.81C12.0276 55.81 10.5337 56.1368 9.31993 57.2572C8.61967 57.8641 8.15283 58.6577 7.96609 59.5914C7.68599 60.7585 7.77936 62.5325 9.83344 63.933C9.83344 63.933 8.71304 63.6529 7.21916 63.6529C5.81865 63.6529 4.09134 63.933 2.73751 64.8666C1.19695 65.9871 0.40333 67.9478 0.870167 69.7684C1.337 71.7291 3.20435 74.2034 9.50665 74.857C9.60001 74.8881 9.6934 74.9036 9.78677 74.9036C9.78677 74.9036 8.33956 75.1371 7.03242 76.2108C6.70563 76.4909 6.37885 76.8177 6.09874 77.1911C5.78752 77.6269 5.60078 78.0781 5.53853 78.545C5.25843 79.9455 6.00538 81.346 7.35921 82.1396C7.35921 82.1396 7.37476 82.1396 7.40588 82.1396C7.7171 82.3263 8.04391 82.4975 8.38625 82.6531C8.47962 82.6843 8.58856 82.7309 8.71305 82.7932C8.75973 82.7932 11.9809 83.6802 17.2562 83.6802C17.3184 83.6802 17.3806 83.6802 17.4429 83.6802C17.4429 83.6802 20.384 85.7343 25.0523 86.0144C32.5217 103.801 47.4138 109.73 56.4237 111.644C57.6842 115.145 59.4115 118.506 61.5589 121.681C61.8079 122.023 62.0569 122.365 62.3059 122.708C62.3059 122.708 59.3181 123.408 57.6842 126.349C55.3967 130.551 58.0577 135.686 62.726 136.713C63.473 136.9 64.36 136.993 65.2936 136.993C68.0013 136.993 71.4559 136.153 75.7508 133.772C75.7508 133.772 81.4462 136.853 88.6822 137.086C88.3087 138.58 87.9819 140.074 87.7018 141.521C84.8074 156.413 84.4806 170.185 84.6207 178.448H96.8985C96.6651 162.529 98.6258 148.991 100.493 139.887V139.841C101.007 137.46 101.473 135.359 101.894 133.632C105.442 131.671 109.223 130.177 113.191 129.383C114.545 129.103 116.039 128.87 117.626 128.637C122.855 135.779 130.838 148.337 137.467 165.75L147.597 160.381C144.049 151.605 138.354 139.187 131.164 128.216C133.592 128.496 136.066 129.057 138.447 129.757C139.707 130.177 141.481 130.551 143.395 130.551C145.076 130.551 146.897 130.27 148.717 129.477C151.752 128.216 153.666 125.182 153.246 121.914C152.919 119.066 151.145 115.705 145.403 114.025C145.403 114.025 147.317 108.889 147.97 101.513C155.44 98.9457 164.45 93.4371 169.912 81.6261C170.628 81.7195 171.343 81.7817 172.059 81.8128C172.153 81.8128 172.261 81.8128 172.386 81.8128C176.961 81.6728 179.902 79.6187 179.902 79.6187C180.742 79.6187 181.536 79.6654 182.376 79.6654C184.71 79.6654 186.998 79.4786 189.145 78.2649C190.779 77.3312 191.48 75.3238 190.313 73.7365C189.005 71.9626 186.905 71.6358 186.905 71.6358C192.927 71.0756 194.701 68.7881 195.168 66.9674C195.541 65.2868 194.841 63.4662 193.44 62.4391C192.18 61.5521 190.593 61.3187 189.285 61.3187C187.978 61.3187 186.951 61.5988 186.951 61.5988C188.865 60.2916 188.912 58.6577 188.679 57.584C188.492 56.7437 188.072 55.9968 187.418 55.4366C186.344 54.4095 184.897 54.1294 183.683 54.1294C182.096 54.1294 180.836 54.5962 180.836 54.5962C170.192 58.1442 167.017 64.3065 167.017 64.3065C166.27 61.2253 165.197 58.611 164.403 56.9304C163.703 55.3899 162.162 54.3628 160.482 54.3628C160.388 54.3628 160.31 54.3628 160.248 54.3628C160.186 54.3628 160.139 54.3628 160.108 54.3628C157.26 54.5962 155.44 57.444 156.233 60.1516C157.26 63.5595 157.214 65.9404 157.214 65.9404C157.167 70.422 158.521 73.6432 160.202 75.9307C158.334 80.3189 154.646 86.4345 147.924 90.4493C147.083 82.9799 144.376 74.7169 137.98 67.4809C138.914 67.3876 139.661 67.1541 140.268 66.8274C142.228 65.7536 142.555 63.046 140.781 61.6455C140.081 61.0853 139.194 60.8052 138.354 60.7585C138.291 60.7585 138.229 60.7585 138.167 60.7585C137.14 60.7585 136.206 61.132 135.226 61.1786C135.101 61.1786 134.992 61.1786 134.899 61.1786C134.012 61.1786 133.125 61.0386 132.238 60.8052C131.024 60.5251 129.81 60.0582 128.69 59.498C128.317 59.3113 127.959 59.1246 127.616 58.9378C127.585 58.9378 127.554 58.9223 127.523 58.8911C127.43 58.8289 127.336 58.7667 127.243 58.7044C125.282 57.5373 123.228 56.4636 120.941 55.4366C114.452 52.5422 107.636 51.1417 100.867 51.1417C85.6477 51.1417 70.849 58.2843 61.8391 71.4957Z" fill="#29234E"/>
<path d="M97.0382 188.342C97.0693 189.431 97.1316 190.505 97.225 191.563L65.8069 191.703C65.8069 191.703 65.7135 190.629 65.8535 188.995C65.9469 188.388 66.0403 187.642 66.227 186.848C67.3941 181.666 72.3426 178.118 77.5712 178.912C79.2518 179.145 81.1191 179.705 83.1732 180.779C83.1732 180.779 82.5663 170.835 83.6867 164.393L98.9523 165.887C98.9523 165.887 96.7114 177.184 97.0382 188.342Z" fill="#5C7E1C"/>
<path d="M97.225 191.565L65.8069 191.705C65.8069 191.705 65.7135 190.632 65.8535 188.998C65.9469 188.391 66.0403 187.644 66.227 186.85C66.2892 186.539 66.367 186.228 66.4604 185.917C94.0505 191.986 97.4117 177.607 97.4117 177.607C97.1316 180.921 96.9449 184.656 97.0382 188.344C97.0693 189.433 97.1316 190.507 97.225 191.565Z" fill="#1B5110"/>
<path d="M97.225 191.562L65.8069 191.702C65.8069 191.702 65.7135 190.628 65.8535 188.994L97.0849 188.948C97.116 189.819 97.1627 190.691 97.225 191.562Z" fill="white"/>
<path fill-rule="evenodd" clip-rule="evenodd" d="M97.7858 188.947C97.8169 189.85 97.8636 190.706 97.9258 191.515L98.0192 192.309H97.2256L65.8075 192.449H65.1539L65.1072 191.748C65.0606 191.702 65.0139 190.581 65.1539 188.947L65.2006 188.294H65.8542L97.0855 188.247H97.7858V188.947ZM65.8542 188.994C65.7141 190.628 65.8075 191.702 65.8075 191.702L97.1789 191.562C97.1167 190.69 97.07 189.819 97.0388 188.947L65.8542 188.994Z" fill="#29234E"/>
<path fill-rule="evenodd" clip-rule="evenodd" d="M83.734 163.647L99.0463 165.187L99.8399 165.234L99.6531 166.028C99.6531 166.168 97.459 177.372 97.7858 188.342C97.8325 189.51 97.8792 190.537 97.9258 191.517L98.0192 192.311H97.2256L65.8075 192.451H65.1539L65.1072 191.75C65.0606 191.704 65.0139 190.583 65.1539 188.949C65.2473 188.109 65.3406 187.362 65.5274 186.709C66.6478 181.713 71.0827 178.072 76.0779 178.072C76.607 178.072 77.136 178.119 77.6651 178.212C79.2057 178.446 80.7929 178.912 82.3802 179.566C82.2401 176.718 82.0534 169.482 82.9871 164.254L83.0804 163.6L83.734 163.647ZM83.1738 180.733C81.0731 179.706 79.2057 179.146 77.5718 178.866C77.0738 178.803 76.5759 178.772 76.0779 178.772C71.4095 178.772 67.2547 182.134 66.2276 186.849C66.0409 187.596 65.9475 188.342 65.8542 188.996C65.7141 190.583 65.8075 191.704 65.8075 191.704L97.2256 191.564C97.1322 190.474 97.07 189.401 97.0388 188.342C96.7121 177.185 98.9529 165.888 98.9529 165.888L83.6873 164.347C82.5202 170.836 83.1738 180.733 83.1738 180.733Z" fill="#29234E"/>
<path d="M86.7691 185.683C85.6954 183.489 83.7814 182.089 81.8674 181.202C75.7518 178.354 68.4225 181.342 66.1817 187.691C65.9949 188.158 65.9482 188.484 65.9482 188.484V188.438C65.9949 187.971 66.0883 187.411 66.2283 186.85C67.3954 181.669 72.3439 178.121 77.5725 178.914C79.2531 179.148 81.1204 179.708 83.1745 180.782C83.1745 180.75 83.1589 180.595 83.1278 180.315C86.6758 183.116 86.7691 185.683 86.7691 185.683Z" fill="#0F6047"/>
<path d="M84.341 181.386L83.1739 180.546C83.0805 179.098 82.6604 170.322 83.6874 164.393L85.2747 164.533C84.6678 167.054 83.454 173.45 84.341 181.386Z" fill="#0F6047"/>
<path d="M81.6797 180.078C81.6797 180.078 85.6945 181.479 86.7682 185.68C86.7682 185.68 87.0016 182.272 82.9868 180.171L81.6797 180.078Z" fill="#29234E"/>
<path d="M83.0332 174.432V172.472L85.4608 170.418L86.2544 169.764L86.3478 169.717C86.6279 169.531 86.9547 169.577 87.1414 169.811C87.3748 170.091 87.3281 170.511 87.0947 170.698L85.4608 172.051L83.7802 173.452L85.4608 175.506L86.4878 176.766C86.6745 177 86.6279 177.42 86.3944 177.607C86.1143 177.84 85.7409 177.794 85.5075 177.56V177.513L83.0332 174.432Z" fill="white"/>
<path fill-rule="evenodd" clip-rule="evenodd" d="M87.5612 169.482C87.7479 169.716 87.8413 169.996 87.7946 170.322C87.7946 170.649 87.6545 170.929 87.4211 171.116L85.7872 172.47L84.5267 173.497L85.8806 175.178V175.224L86.8609 176.438C87.2811 176.905 87.1877 177.652 86.7209 178.025C86.4874 178.212 86.254 178.305 85.9739 178.305C85.6471 178.305 85.3203 178.119 85.0869 177.885V177.839L82.6127 174.757H82.566V174.711L82.4727 174.571V174.431L82.5193 172.47V172.19L82.7061 172.05L85.1336 170.042L85.9272 169.342H85.9739L86.0206 169.295L86.0673 169.249C86.254 169.124 86.4563 169.062 86.6742 169.062C87.001 169.062 87.3277 169.249 87.5612 169.482ZM86.3474 169.716L86.254 169.762L85.4604 170.416L83.0328 172.47V174.431L85.5071 177.512V177.558C85.6471 177.698 85.7872 177.745 85.9739 177.745C86.1295 177.745 86.2696 177.698 86.3941 177.605C86.6275 177.418 86.6742 176.998 86.4874 176.765L85.4604 175.504L83.7798 173.45L85.4604 172.05L87.0943 170.696C87.3277 170.509 87.3744 170.089 87.141 169.809C87.0477 169.669 86.8609 169.622 86.6742 169.622C86.5497 169.622 86.4408 169.653 86.3474 169.716Z" fill="#29234E"/>
<path opacity="0.3" d="M83.7802 173.451L83.0332 174.058V174.431L83.3133 174.851L84.247 174.011L83.7802 173.451Z" fill="#401917"/>
<path d="M83.1738 166.355L98.8129 167.849" stroke="#29234E" stroke-width="1.3" stroke-linecap="round" stroke-linejoin="round" stroke-dasharray="0.7 0.7"/>
<path d="M140.314 176.672C140.688 177.699 141.015 178.726 141.295 179.753L170.799 169.063C170.799 169.063 170.519 167.989 169.819 166.542C169.538 165.981 169.212 165.328 168.745 164.628C165.897 160.193 160.015 158.559 155.347 161.126C153.899 161.92 152.312 163.087 150.772 164.768C150.772 164.768 147.924 155.244 144.609 149.549L130.791 156.271C130.791 156.271 136.813 166.122 140.314 176.672Z" fill="#5C7E1C"/>
<path d="M141.295 179.756L170.799 169.066C170.799 169.066 170.519 167.992 169.819 166.545C169.539 165.985 169.212 165.331 168.745 164.631C168.589 164.382 168.403 164.133 168.185 163.884C144.423 179.056 136.3 166.731 136.3 166.731C137.7 169.719 139.147 173.174 140.315 176.675C140.688 177.702 141.015 178.729 141.295 179.756Z" fill="#1B5110"/>
<path d="M141.294 179.751L170.798 169.06C170.798 169.06 170.518 167.987 169.818 166.54L140.547 177.277C140.796 178.086 141.045 178.911 141.294 179.751Z" fill="white"/>
<path fill-rule="evenodd" clip-rule="evenodd" d="M170.471 166.261C171.218 167.755 171.498 168.829 171.498 168.875L171.685 169.529L171.078 169.762L141.527 180.453L140.78 180.733L140.594 179.939C140.376 179.161 140.127 178.352 139.847 177.512L139.613 176.858L140.267 176.578L169.584 165.888L170.191 165.654L170.471 166.261ZM140.5 177.279C140.78 178.119 141.045 178.944 141.294 179.753L170.798 169.062C170.798 169.062 170.518 168.035 169.818 166.588L140.5 177.279Z" fill="#29234E"/>
<path fill-rule="evenodd" clip-rule="evenodd" d="M145.263 149.223C147.877 153.798 150.211 160.66 151.098 163.414C152.312 162.201 153.666 161.22 155.02 160.473C156.56 159.633 158.334 159.166 160.108 159.166C163.796 159.166 167.344 161.127 169.351 164.255C169.725 164.862 170.098 165.515 170.472 166.262C171.219 167.756 171.499 168.83 171.499 168.876L171.686 169.53L171.079 169.763L141.528 180.454L140.781 180.687L140.594 179.94C140.314 179.007 140.034 178.026 139.661 176.906C136.159 166.542 130.23 156.739 130.184 156.645L129.764 155.945L130.511 155.618L144.282 148.896L144.889 148.616L145.263 149.223ZM130.837 156.272C130.837 156.272 136.86 166.122 140.361 176.719C140.703 177.715 141.03 178.742 141.341 179.8L170.845 169.063C170.845 169.063 170.565 168.036 169.865 166.589C169.585 165.982 169.211 165.328 168.791 164.675C166.83 161.64 163.516 159.913 160.108 159.913C158.521 159.913 156.887 160.287 155.393 161.127C153.946 161.921 152.359 163.088 150.771 164.815C150.771 164.815 147.924 155.291 144.656 149.596L130.837 156.272Z" fill="#29234E"/>
<path d="M149.044 170.65C149.325 168.176 150.632 166.215 152.126 164.721C156.887 159.959 164.777 160.239 169.072 165.421C169.399 165.841 169.585 166.075 169.585 166.075V166.028C169.352 165.608 169.072 165.141 168.745 164.628C165.897 160.193 160.015 158.559 155.347 161.08C153.9 161.92 152.312 163.087 150.772 164.768C150.772 164.768 150.725 164.628 150.632 164.348C148.297 168.176 149.044 170.65 149.044 170.65Z" fill="#0F6047"/>
<path d="M149.885 165.748L150.678 164.581C150.258 163.18 147.644 154.777 144.609 149.549L143.209 150.249C144.609 152.397 147.971 158.045 149.885 165.748Z" fill="#0F6047"/>
<path d="M151.891 163.648C151.891 163.648 148.623 166.309 149.043 170.65C149.043 170.65 147.689 167.523 150.724 164.161L151.891 163.648Z" fill="#29234E"/>
<path d="M148.717 158.792L148.017 156.925L145.029 155.851L144.049 155.524L143.955 155.478C143.629 155.431 143.348 155.571 143.255 155.898C143.115 156.224 143.302 156.551 143.629 156.691L145.589 157.392L147.643 158.092L146.756 160.659L146.243 162.153C146.149 162.48 146.336 162.807 146.663 162.947C146.99 163.04 147.317 162.9 147.457 162.573V162.527L148.717 158.792Z" fill="white"/>
<path fill-rule="evenodd" clip-rule="evenodd" d="M144.049 154.966L144.142 155.013H144.189L145.216 155.386L148.204 156.46L148.437 156.507L148.484 156.74L149.184 158.608L149.278 158.748L149.231 158.888V158.934V158.981L147.97 162.669V162.716H147.924C147.784 163.183 147.364 163.509 146.85 163.509C146.726 163.509 146.601 163.478 146.477 163.416C145.87 163.229 145.59 162.576 145.776 161.969L146.29 160.522V160.475L146.99 158.421L145.403 157.861L143.442 157.16C143.162 157.067 142.929 156.88 142.789 156.6C142.648 156.32 142.648 155.993 142.742 155.713C142.929 155.246 143.349 154.966 143.816 154.966C143.909 154.966 143.987 154.966 144.049 154.966ZM143.255 155.9C143.115 156.227 143.302 156.554 143.629 156.694L145.59 157.394L147.644 158.094L146.803 160.662H146.757L146.243 162.156C146.15 162.482 146.336 162.809 146.663 162.949C146.726 162.98 146.788 162.996 146.85 162.996C147.13 162.996 147.364 162.809 147.457 162.576V162.529L148.717 158.794L148.017 156.927L145.029 155.853L144.049 155.527L143.956 155.48C143.924 155.48 143.878 155.48 143.816 155.48C143.582 155.48 143.349 155.62 143.255 155.9Z" fill="#29234E"/>
<path opacity="0.3" d="M147.645 158.09L148.578 158.417L148.718 158.791L148.578 159.257L147.411 158.791L147.645 158.09Z" fill="#401917"/>
<path d="M145.776 151.278L131.631 158.047" stroke="#29234E" stroke-width="1.3" stroke-linecap="round" stroke-linejoin="round" stroke-dasharray="0.7 0.7"/>
<path d="M151.16 57.0682C160.085 61.6555 171.039 58.1389 175.626 49.2138C180.213 40.2886 176.697 29.3346 167.772 24.7474C158.847 20.1601 147.893 23.6767 143.305 32.6018C138.718 41.527 142.235 52.481 151.16 57.0682Z" fill="#FE3E66"/>
<path d="M154.285 34.1556C154.064 33.284 154.355 32.3793 154.778 31.6168C155.234 30.794 155.911 30.0265 156.776 29.6209C157.542 29.261 158.51 29.2244 159.245 29.6757C159.946 30.1047 160.264 30.9512 160.322 31.7379C160.412 32.9576 159.939 34.1414 159.504 35.2557C159.353 35.6419 159.441 36.0853 159.835 36.2882C160.176 36.4631 160.716 36.3441 160.868 35.9567C161.385 34.6357 161.918 33.2663 161.863 31.8224C161.818 30.6104 161.338 29.3354 160.35 28.5833C159.309 27.7906 157.909 27.6294 156.675 28.0205C155.388 28.4286 154.384 29.4001 153.659 30.5076C152.866 31.7206 152.461 33.197 152.823 34.6237C152.925 35.0254 153.411 35.2402 153.788 35.1194C154.204 34.9868 154.386 34.5585 154.285 34.1556Z" fill="#2F383C"/>
<path d="M169.922 44.4251C172.352 43.4737 173.664 40.3795 173.165 37.9043C172.917 36.6816 172.104 35.5175 170.96 34.981C169.774 34.4252 168.451 34.6211 167.322 35.2155C165.906 35.9603 165 37.3589 164.154 38.6605C163.928 39.0082 164.144 39.5174 164.485 39.693C164.885 39.8983 165.291 39.7104 165.518 39.3615C166.448 37.9292 167.896 35.7621 169.922 36.2313C170.758 36.4245 171.362 37.1808 171.604 37.9719C171.874 38.8568 171.733 39.8567 171.394 40.7051C171.024 41.6332 170.422 42.5855 169.452 42.9644C169.066 43.1155 168.824 43.5176 168.956 43.9288C169.079 44.3046 169.535 44.5755 169.922 44.4251Z" fill="#2F383C"/>
<path d="M158.277 43.2095C153.886 40.9526 150.471 37.7828 148.385 34.4051C148.382 34.4099 148.379 34.4141 148.376 34.4201C145.138 40.7194 147.62 48.451 153.919 51.6886C160.219 54.9263 167.95 52.4442 171.188 46.1449C171.19 46.1401 171.192 46.1346 171.195 46.1286C167.235 46.3972 162.668 45.4663 158.277 43.2095Z" fill="white"/>
<path d="M138.356 24.1208C137.021 34.1147 127.836 41.133 117.842 39.7977C107.848 38.4625 100.83 29.2777 102.165 19.2839C103.501 9.28999 112.685 2.27171 122.679 3.60695C132.673 4.9422 139.691 14.1269 138.356 24.1208Z" fill="#FE9603"/>
<path d="M115.684 16.5382C115.516 17.7981 114.358 18.6816 113.099 18.5132C111.839 18.345 110.956 17.1871 111.124 15.9284C111.292 14.6686 112.45 13.7838 113.709 13.9534C114.968 14.1218 115.852 15.2796 115.684 16.5382Z" fill="#2F383C"/>
<path d="M130.711 18.5358C130.543 19.7957 129.385 20.6792 128.126 20.5108C126.866 20.3426 125.983 19.1846 126.151 17.926C126.32 16.6661 127.478 15.7827 128.736 15.951C129.995 16.1194 130.88 17.2772 130.711 18.5358Z" fill="#2F383C"/>
<path d="M113.406 21.1129C113.199 24.5245 114.944 28.1498 118.555 28.8582C121.98 29.5312 124.728 26.6859 126.166 23.9204C126.625 23.038 125.201 22.4465 124.746 23.322C123.647 25.4343 121.565 27.7782 118.928 27.3605C116.103 26.9128 114.775 23.9167 114.934 21.3262C114.993 20.3411 113.467 20.1225 113.406 21.1129Z" fill="#2F383C"/>
<path d="M113.83 9.04089C115.046 10.3079 116.262 11.5747 117.479 12.8416C117.757 13.1318 118.22 13.2683 118.561 12.9784C118.851 12.732 118.996 12.2085 118.698 11.8968C117.481 10.6299 116.265 9.36289 115.049 8.09603C114.77 7.80578 114.308 7.67055 113.967 7.95917C113.676 8.20561 113.531 8.72918 113.83 9.04089Z" fill="#2F383C"/>
<path d="M125.572 14.936C127.182 13.7099 128.684 12.3532 130.084 10.8915C130.363 10.5995 130.257 10.0325 129.942 9.81065C129.57 9.54923 129.16 9.63972 128.861 9.95201C127.59 11.2799 126.132 12.5725 124.629 13.7173C124.307 13.9614 124.224 14.4832 124.492 14.7989C124.762 15.1194 125.229 15.1969 125.572 14.936Z" fill="#2F383C"/>
<path d="M53.6284 34.0645C58.7591 42.744 55.8822 53.9394 47.2027 59.07C38.5232 64.2007 27.3278 61.3239 22.1971 52.6443C17.0664 43.9648 19.9433 32.7694 28.6228 27.6387C37.3024 22.508 48.4977 25.3849 53.6284 34.0645Z" fill="#E45FC3"/>
<path d="M31.1245 42.1208C31.7712 43.2141 31.4088 44.6253 30.3144 45.2722C29.2211 45.9189 27.8099 45.5565 27.1629 44.4621C26.5163 43.3688 26.8787 41.9576 27.9731 41.3106C29.0676 40.6637 30.4788 41.026 31.1245 42.1208Z" fill="#2F383C"/>
<path d="M44.1762 34.4121C44.8228 35.5054 44.4604 36.9166 43.366 37.5636C42.2727 38.2102 40.8615 37.8478 40.2146 36.7533C39.5679 35.6601 39.9303 34.2489 41.0247 33.602C42.1195 32.9563 43.5295 33.3189 44.1762 34.4121Z" fill="#2F383C"/>
<path d="M32.1545 47.1173C33.1385 48.5385 34.438 49.7081 36.0792 50.3095C37.753 50.9228 39.7622 50.818 41.2952 49.8754C44.1256 48.134 44.5038 44.4696 43.9371 41.4834C43.7524 40.5081 42.2501 40.8577 42.4357 41.8314C42.8567 44.0493 42.756 47.0026 40.7048 48.4275C38.2155 50.1558 35.0514 48.6099 33.5106 46.3825C32.9513 45.5769 31.5886 46.3002 32.1545 47.1173Z" fill="#2F383C"/>
<path d="M25.1853 37.3954C26.9247 37.639 28.6642 37.8826 30.4024 38.1265C30.8022 38.1826 31.2059 37.776 31.2041 37.3883C31.2027 36.9359 30.8937 36.6466 30.4659 36.5866C28.7264 36.343 26.987 36.0994 25.2476 35.8558C24.8478 35.7997 24.444 36.2064 24.4459 36.594C24.4483 37.0449 24.7572 37.3342 25.1853 37.3954Z" fill="#2F383C"/>
<path d="M37.8845 34.7889C38.3904 32.8309 38.7436 30.8331 38.9394 28.8202C38.9792 28.4061 38.6008 28.0347 38.2012 28.0186C37.765 28.0007 37.4391 28.3415 37.3995 28.7568C37.2164 30.64 36.887 32.5002 36.4125 34.332C36.308 34.7352 36.5094 35.1684 36.9195 35.2972C37.3026 35.4153 37.7791 35.1937 37.8845 34.7889Z" fill="#2F383C"/>
<path d="M94.2795 28.2482C97.0859 18.5534 91.5018 8.41912 81.807 5.61264C72.1122 2.80616 61.9779 8.39027 59.1714 18.0851C56.3649 27.7799 61.949 37.9142 71.6439 40.7207C81.3387 43.5272 91.473 37.9431 94.2795 28.2482Z" fill="#5C9F80"/>
<path d="M69.9601 21.7169C70.5711 22.8325 70.1636 24.232 69.048 24.843C67.9324 25.454 66.5329 25.0466 65.9219 23.931C65.3109 22.8154 65.7184 21.4159 66.834 20.8049C67.9496 20.1938 69.349 20.6025 69.9601 21.7169Z" fill="#2F383C"/>
<path d="M83.2765 14.4226C83.8875 15.5382 83.48 16.9377 82.3644 17.5487C81.2488 18.1597 79.8493 17.7523 79.2383 16.6367C78.6273 15.5211 79.0347 14.1216 80.1503 13.5106C81.2659 12.8996 82.6654 13.307 83.2765 14.4226Z" fill="#2F383C"/>
<path d="M68.2878 28.8126C70.8064 33.3308 76.1732 35.912 81.0521 33.4789C86.0896 30.9657 87.7675 24.9626 86.35 19.787C86.0893 18.8359 84.5743 19.1323 84.8368 20.0937C86.0461 24.5102 84.8696 29.7133 80.5731 31.9892C76.4301 34.1834 71.8354 32.012 69.6702 28.1277C69.1886 27.2625 67.8015 27.9421 68.2878 28.8126Z" fill="#2F383C"/>
</svg>
